<svg width="204" height="238" viewBox="0 0 204 238" fill="none" xmlns="http://www.w3.org/2000/svg">
<path d="M46.2033 31.4652L41.8925 43.5745L42.7398 58.4757L50.2401 113.991L58.2797 129.88L82.4608 175.797L73.4238 192.685L59.9349 198.503L54.1057 206.256L59.2918 215.231L80.224 223.094C80.224 223.094 108.2 221.733 108.402 221.67C108.604 221.607 121.671 215.148 121.671 215.148L125.334 206.803L105.479 189.193L97.5464 174.724L119.991 133.315L128.727 114.572L134.435 59.8311L133.154 38.2012L126.936 33.187C126.936 33.187 102.358 30.1008 102.093 30.0996L79.1566 29.4741L46.2033 31.4652Z" fill="url(#paint0_linear)"/>
<path d="M46.4055 36.5464L46.3013 31.7439L78.9701 29.5214L102.292 30.2812L126.828 33.2737L132.926 38.217C127.436 39.284 116.253 41.4455 115.44 41.5546C114.628 41.6636 104.412 41.6854 99.4059 41.6825L73.7345 40.4823L46.4055 36.5464Z" fill="url(#paint1_linear)" fill-opacity="0.5"/>
<path d="M135.013 60.3571L133.923 43.9852L149.239 48.9425L163.186 63.6863L164.858 73.3347L162.789 102.488C148.735 112.83 120.569 133.552 120.33 133.703C120.091 133.854 126.11 121.202 129.15 114.857L130.138 103.996L149.453 86.9802L147.86 70.0013L135.013 60.3571Z" fill="url(#paint2_linear)"/>
<path d="M43.0227 58.5745L42.1065 43.3912L28.7645 44.2472L14.3228 58.4845L10.9889 78.0477L22.8958 100.973L58.5908 129.817L50.3634 113.555L48.9778 103.381L27.9957 84.2731L29.5502 66.4557L43.0227 58.5745Z" fill="url(#paint3_linear)"/>
<path d="M46.5427 31.6682L46.5102 31.306L46.2956 31.3189L46.2204 31.5295L46.5427 31.6682ZM50.5794 114.194L50.2391 114.232L50.248 114.297L50.2777 114.356L50.5794 114.194ZM58.6189 130.082L58.3171 130.244L58.3199 130.249L58.6189 130.082ZM82.7999 176L83.1007 176.187L83.1938 176.014L83.0988 175.833L82.7999 176ZM73.7631 192.888L73.9032 193.225L74.0081 193.179L74.0638 193.075L73.7631 192.888ZM60.2741 198.707L60.134 198.37L60.0548 198.404L60.0019 198.474L60.2741 198.707ZM54.4448 206.459L54.1725 206.227L54.0269 206.42L54.1532 206.639L54.4448 206.459ZM59.6309 215.434L59.3393 215.614L59.4063 215.73L59.5266 215.775L59.6309 215.434ZM80.5633 223.297L80.459 223.639L80.524 223.663L80.5919 223.659L80.5633 223.297ZM122.011 215.351L122.166 215.68L122.273 215.627L122.323 215.513L122.011 215.351ZM125.673 207.006L125.986 207.169L126.096 206.917L125.888 206.732L125.673 207.006ZM105.818 189.397L105.523 189.569L105.554 189.627L105.603 189.67L105.818 189.397ZM97.8854 174.927L97.5858 174.738L97.4889 174.916L97.5896 175.1L97.8854 174.927ZM120.33 133.518L120.63 133.707L120.635 133.698L120.64 133.688L120.33 133.518ZM129.066 114.775L129.376 114.945L129.402 114.89L129.408 114.828L129.066 114.775ZM134.774 60.0344L135.116 60.0875L135.119 60.0564L135.117 60.0253L134.774 60.0344ZM133.493 38.4043L133.836 38.3952L133.826 38.2245L133.695 38.1191L133.493 38.4043ZM127.275 33.3901L127.477 33.1049L127.399 33.0419L127.303 33.0298L127.275 33.3901ZM102.432 30.3026L102.436 30.6653L102.44 30.6653L102.444 30.6654L102.432 30.3026ZM79.496 29.6771L79.4916 29.3146L79.4773 29.3142L79.4635 29.3149L79.496 29.6771ZM46.2376 36.4876L45.8946 36.4499L45.8987 36.5348L46.2376 36.4876ZM74.1758 40.5958L74.1413 40.9551L74.1734 40.9582L74.1758 40.5958ZM133.512 38.3982L133.853 38.4627L133.444 38.0402L133.512 38.3982ZM122.814 117.37L123.128 117.531L123.155 117.435L122.814 117.37ZM14.444 58.8701L14.2041 58.6011L14.1062 58.7904L14.444 58.8701ZM149.307 48.967L149.546 48.7157L149.484 48.6494L149.399 48.6214L149.307 48.967ZM163.172 63.64L163.51 63.5904L163.49 63.4735L163.41 63.3886L163.172 63.64ZM164.798 73.4284L165.14 73.4709L165.144 73.4246L165.136 73.3789L164.798 73.4284ZM162.604 102.58L162.807 102.881L162.934 102.788L162.947 102.623L162.604 102.58ZM149.446 86.548L149.79 86.5662L149.79 86.5449L149.788 86.5236L149.446 86.548ZM73.7045 40.8042L74.0281 40.6954L73.3662 40.7259L73.7045 40.8042ZM108.798 221.847L108.58 222.119L109.14 221.826L108.798 221.847ZM73.8087 192.874L73.991 192.573L73.5199 192.666L73.8087 192.874ZM28.8044 44.6615L28.7702 44.2994L28.5645 44.3925L28.8044 44.6615ZM22.9494 101.337L22.6489 101.501L22.7474 101.622L22.9494 101.337ZM11.0153 78.1798L10.6774 78.1001L10.6548 78.2275L10.7148 78.3439L11.0153 78.1798ZM129.125 114.757L129.266 115.093L129.277 115.089L129.125 114.757ZM134.421 55.3977L134.581 55.0829L134.203 55.6694L134.421 55.3977ZM50.8641 114.327L51.058 114.035L50.9928 113.996L50.8641 114.327ZM46.2204 31.5295L41.9094 43.6389L42.554 43.9163L46.8649 31.807L46.2204 31.5295ZM41.8887 43.7858L42.736 58.687L43.4221 58.6707L42.5747 43.7694L41.8887 43.7858ZM42.7389 58.7167L50.2391 114.232L50.9196 114.156L43.4192 58.6409L42.7389 58.7167ZM50.2777 114.356L58.3172 130.244L58.9207 129.921L50.8812 114.033L50.2777 114.356ZM58.3199 130.249L82.501 176.167L83.0988 175.833L58.9178 129.915L58.3199 130.249ZM82.4991 175.813L73.4623 192.701L74.0638 193.075L83.1007 176.187L82.4991 175.813ZM73.623 192.551L60.134 198.37L60.4141 199.043L73.9032 193.225L73.623 192.551ZM60.0019 198.474L54.1725 206.227L54.7171 206.691L60.5463 198.938L60.0019 198.474ZM54.1532 206.639L59.3393 215.614L59.9225 215.253L54.7364 206.278L54.1532 206.639ZM59.5266 215.775L80.459 223.639L80.6676 222.956L59.7352 215.092L59.5266 215.775ZM80.5633 223.297C80.5919 223.659 80.592 223.659 80.5923 223.66C80.5925 223.66 80.5928 223.66 80.5932 223.66C80.594 223.659 80.5953 223.659 80.5971 223.659C80.6005 223.659 80.6055 223.659 80.6123 223.659C80.6256 223.658 80.6458 223.657 80.6722 223.656C80.7252 223.653 80.8037 223.649 80.9062 223.644C81.1111 223.634 81.4118 223.62 81.7945 223.601C82.5599 223.564 83.6535 223.51 84.9665 223.446C87.5925 223.317 91.0958 223.145 94.6056 222.971C98.1152 222.797 101.631 222.621 104.283 222.484C105.609 222.416 106.719 222.357 107.503 222.314C107.896 222.293 108.208 222.275 108.425 222.261C108.533 222.255 108.619 222.249 108.68 222.244C108.71 222.242 108.736 222.24 108.756 222.238C108.766 222.237 108.777 222.236 108.787 222.234C108.787 222.235 108.818 222.231 108.85 222.221L108.633 221.524C108.653 221.518 108.668 221.516 108.669 221.516C108.674 221.515 108.677 221.514 108.677 221.514C108.677 221.514 108.674 221.515 108.668 221.515C108.655 221.517 108.634 221.518 108.606 221.52C108.549 221.525 108.466 221.53 108.359 221.537C108.144 221.55 107.834 221.568 107.442 221.59C106.658 221.633 105.549 221.691 104.224 221.759C101.573 221.896 98.0572 222.072 94.5476 222.246C91.0381 222.42 87.5348 222.592 84.9089 222.721C83.596 222.786 82.5025 222.839 81.7371 222.876C81.3544 222.895 81.0538 222.91 80.8488 222.92C80.7464 222.925 80.6678 222.928 80.6149 222.931C80.5885 222.932 80.5682 222.933 80.5549 222.934C80.5481 222.934 80.5431 222.935 80.5397 222.935C80.538 222.935 80.5367 222.935 80.5359 222.935C80.5355 222.935 80.5352 222.935 80.5348 222.935C80.5347 222.935 80.5346 222.935 80.5633 223.297ZM108.85 222.221C108.881 222.211 108.924 222.191 108.944 222.182C108.977 222.167 109.021 222.146 109.075 222.121C109.182 222.07 109.334 221.996 109.523 221.905C109.9 221.722 110.427 221.464 111.054 221.157C112.308 220.543 113.961 219.729 115.607 218.918C117.253 218.106 118.893 217.297 120.121 216.691C120.735 216.387 121.246 216.135 121.604 215.958C121.783 215.87 121.923 215.8 122.019 215.753C122.067 215.729 122.104 215.711 122.128 215.699C122.141 215.693 122.15 215.688 122.156 215.685C122.159 215.684 122.162 215.683 122.164 215.682C122.164 215.681 122.165 215.681 122.165 215.681C122.166 215.68 122.166 215.68 122.166 215.68C122.166 215.68 122.166 215.68 122.011 215.351C121.856 215.021 121.855 215.021 121.855 215.021C121.855 215.021 121.855 215.021 121.855 215.022C121.855 215.022 121.854 215.022 121.853 215.022C121.852 215.023 121.849 215.024 121.846 215.026C121.84 215.029 121.83 215.034 121.818 215.04C121.793 215.052 121.757 215.07 121.709 215.094C121.613 215.141 121.473 215.211 121.294 215.299C120.936 215.475 120.425 215.728 119.811 216.031C118.583 216.638 116.943 217.447 115.297 218.258C113.651 219.069 111.999 219.882 110.746 220.497C110.119 220.804 109.593 221.061 109.216 221.244C109.029 221.335 108.879 221.407 108.773 221.457C108.72 221.482 108.679 221.502 108.651 221.515C108.609 221.533 108.614 221.53 108.633 221.524L108.85 222.221ZM122.323 215.513L125.986 207.169L125.36 206.844L121.698 215.188L122.323 215.513ZM125.888 206.732L106.033 189.122L105.603 189.67L125.458 207.28L125.888 206.732ZM106.114 189.224L98.1813 174.754L97.5896 175.1L105.523 189.569L106.114 189.224ZM98.1853 175.116L120.63 133.707L120.03 133.329L97.5858 174.738L98.1853 175.116ZM120.64 133.688L129.376 114.945L128.757 114.605L120.02 133.348L120.64 133.688ZM129.408 114.828L135.116 60.0875L134.433 59.9812L128.725 114.722L129.408 114.828ZM135.117 60.0253L133.836 38.3952L133.15 38.4134L134.432 60.0433L135.117 60.0253ZM133.695 38.1191L127.477 33.1049L127.073 33.6753L133.291 38.6896L133.695 38.1191ZM127.275 33.3901C127.303 33.0298 127.303 33.0298 127.303 33.0298C127.303 33.0298 127.303 33.0297 127.302 33.0297C127.301 33.0296 127.3 33.0295 127.299 33.0293C127.296 33.0289 127.292 33.0283 127.286 33.0276C127.273 33.0262 127.256 33.0238 127.233 33.0209C127.186 33.0151 127.117 33.0065 127.027 32.9952C126.847 32.9725 126.583 32.9394 126.247 32.8972C125.574 32.8128 124.613 32.6923 123.459 32.5477C121.15 32.2583 118.07 31.8724 114.981 31.4866C111.892 31.1007 108.795 30.7148 106.453 30.4252C105.282 30.2805 104.3 30.1598 103.602 30.0753C103.254 30.0329 102.975 29.9997 102.78 29.9769C102.682 29.9656 102.605 29.9567 102.549 29.9506C102.506 29.9461 102.451 29.94 102.421 29.9398L102.444 30.6654C102.43 30.6653 102.439 30.6653 102.505 30.6725C102.557 30.6782 102.633 30.6868 102.73 30.698C102.924 30.7207 103.201 30.7538 103.549 30.7961C104.246 30.8806 105.228 31.0011 106.398 31.1459C108.74 31.4354 111.837 31.8213 114.925 32.2071C118.015 32.5929 121.095 32.9787 123.403 33.2681C124.557 33.4128 125.519 33.5333 126.191 33.6177C126.527 33.6599 126.791 33.6931 126.971 33.7157C127.061 33.727 127.131 33.7356 127.177 33.7415C127.2 33.7444 127.218 33.7466 127.23 33.7481C127.236 33.7488 127.24 33.7495 127.243 33.7498C127.244 33.75 127.246 33.7502 127.246 33.7502C127.247 33.7502 127.247 33.7503 127.247 33.7502C127.248 33.7503 127.248 33.7504 127.275 33.3901ZM102.428 29.9399L79.4916 29.3146L79.4999 30.0398L102.436 30.6653L102.428 29.9399ZM79.4635 29.3149L46.5102 31.306L46.5751 32.0305L79.528 30.0395L79.4635 29.3149ZM46.2 31.6305L45.8946 36.4499L46.5803 36.5253L46.8858 31.7059L46.2 31.6305ZM46.2026 36.847L74.1413 40.9551L74.2108 40.2365L46.2721 36.1283L46.2026 36.847ZM74.1734 40.9582L99.4161 42.1628L99.421 41.438L74.1787 40.2333L74.1734 40.9582ZM99.4362 42.1631L115.43 41.9374L115.396 41.2118L99.401 41.4376L99.4362 42.1631ZM115.482 41.9325L133.581 38.7561L133.444 38.0402L115.344 41.2167L115.482 41.9325ZM133.172 38.3336L122.474 117.306L123.155 117.435L133.853 38.4627L133.172 38.3336ZM123.156 117.346L115.755 41.5509L115.071 41.5984L122.472 117.394L123.156 117.346ZM49.5122 103.892L28.405 84.495L27.965 85.0346L49.0722 104.432L49.5122 103.892ZM28.5271 84.8135L30.2 66.7554L29.516 66.658L27.843 84.7161L28.5271 84.8135ZM30.0376 67.0229L43.2587 58.995L42.8994 58.3626L29.6784 66.3905L30.0376 67.0229ZM43.0732 58.3161L26.0637 57.9492L26.0755 58.6747L43.085 59.0415L43.0732 58.3161ZM26.0411 57.9495L14.4156 58.5077L14.4725 59.2326L26.0981 58.6744L26.0411 57.9495ZM133.678 44.1286L149.215 49.3126L149.399 48.6214L133.863 43.4375L133.678 44.1286ZM149.069 49.2183L162.933 63.8911L163.41 63.3886L149.546 48.7157L149.069 49.2183ZM162.833 63.6897L164.459 73.478L165.136 73.3789L163.51 63.5904L162.833 63.6897ZM164.455 73.3865L162.261 102.538L162.947 102.623L165.14 73.4709L164.455 73.3865ZM162.401 102.28L120.186 133.2L120.592 133.8L162.807 102.881L162.401 102.28ZM130.384 104.288L149.675 86.8272L149.217 86.2687L129.926 103.73L130.384 104.288ZM149.788 86.5236L148.12 69.7533L147.437 69.8022L149.104 86.5722L149.788 86.5236ZM147.971 69.485L134.986 59.7352L134.602 60.3212L147.587 70.0706L147.971 69.485ZM45.8987 36.5348L59.4034 121.126L60.0811 121.031L46.5766 36.4404L45.8987 36.5348ZM59.4298 121.217L82.6722 175.653L83.2969 175.376L60.0547 120.94L59.4298 121.217ZM82.6455 175.56L86.7691 202.234L87.4474 202.143L83.3236 175.469L82.6455 175.56ZM86.7811 202.065L80.2817 223.159L80.9361 223.407L87.4355 202.313L86.7811 202.065ZM99.0753 41.7995L101.902 126.454L102.589 126.456L99.7619 41.8012L99.0753 41.7995ZM101.908 126.37L91.9614 178.078L92.6354 178.248L102.582 126.54L101.908 126.37ZM60.0804 121.157L74.0424 40.8827L73.3662 40.7259L59.4042 121L60.0804 121.157ZM82.9069 175.864L92.2208 178.513L92.3762 177.813L83.0623 175.165L82.9069 175.864ZM92.4717 178.482L98.1175 175.228L97.771 174.589L92.1251 177.843L92.4717 178.482ZM97.6105 174.982L108.464 221.921L109.132 221.774L98.2779 174.835L97.6105 174.982ZM109.14 221.826L106.212 189.359L105.528 189.401L108.456 221.868L109.14 221.826ZM59.9588 215.63L74.0974 193.082L73.5199 192.666L59.3814 215.214L59.9588 215.63ZM73.6263 193.174L86.9259 202.489L87.2907 201.889L73.991 192.573L73.6263 193.174ZM87.4436 202.282L92.6336 178.256L91.9632 178.069L86.7731 202.095L87.4436 202.282ZM92.6188 178.044L73.2259 124.798L72.5855 125.036L91.9784 178.281L92.6188 178.044ZM73.2493 124.934L74.048 40.8215L73.3609 40.7869L72.562 124.9L73.2493 124.934ZM73.3809 40.913L101.922 126.563L102.569 126.346L74.0281 40.6954L73.3809 40.913ZM78.8854 29.7431L79.4336 40.8239L80.1202 40.8132L79.5716 29.7325L78.8854 29.7431ZM102.091 30.2906L101.929 41.7767L102.616 41.8147L102.778 30.3286L102.091 30.2906ZM28.4681 44.5738L25.7333 58.2242L26.406 58.3997L29.1408 44.7493L28.4681 44.5738ZM25.726 58.3028L26.0218 83.3747L26.7091 83.393L26.4132 58.321L25.726 58.3028ZM26.0285 83.2996L22.6123 101.253L23.2864 101.421L26.7025 83.4681L26.0285 83.2996ZM22.9298 101.698L48.7814 104.279L48.8205 103.557L22.9689 100.976L22.9298 101.698ZM10.9215 78.5249L26.2717 83.7289L26.4593 83.0388L11.1091 77.8348L10.9215 78.5249ZM26.1719 83.6757L27.9915 85.0567L28.3786 84.4729L26.5591 83.092L26.1719 83.6757ZM30.1672 66.5608L26.3789 58.166L25.7604 58.4578L29.5488 66.8526L30.1672 66.5608ZM26.2981 58.5918L42.4601 44.0575L42.0032 43.4977L25.8411 58.032L26.2981 58.5918ZM42.1975 43.4155L28.7702 44.2994L28.8386 45.0237L42.2659 44.1397L42.1975 43.4155ZM28.5645 44.3925L14.2041 58.6011L14.684 59.1391L29.0444 44.9306L28.5645 44.3925ZM14.1062 58.7904L10.6774 78.1001L11.3531 78.2596L14.7819 58.9498L14.1062 58.7904ZM10.7148 78.3439L22.6489 101.501L23.2499 101.173L11.3157 78.0158L10.7148 78.3439ZM22.7474 101.622L58.4366 130.362L58.8403 129.791L23.1511 101.051L22.7474 101.622ZM109.016 221.576L87.3264 201.917L86.8901 202.46L108.58 222.119L109.016 221.576ZM87.4259 202.339L98.2621 175.06L97.6265 174.758L86.7905 202.038L87.4259 202.339ZM98.2578 175.069L123.128 117.531L122.501 117.21L97.6307 174.748L98.2578 175.069ZM129.382 115.008L149.645 91.7702L149.132 91.2679L128.869 114.506L129.382 115.008ZM149.123 91.7388L156.648 101.718L157.179 101.279L149.654 91.2998L149.123 91.7388ZM156.865 101.856L162.555 102.937L162.652 102.223L156.962 101.142L156.865 101.856ZM147.947 70.1008L149.516 69.236L149.18 68.5899L147.611 69.4547L147.947 70.1008ZM149.267 69.2627L164.718 73.7778L164.877 73.0791L149.428 68.5639L149.267 69.2627ZM164.957 73.1138L134.581 55.0829L134.262 55.7123L164.638 73.743L164.957 73.1138ZM134.203 55.6694L149.129 69.1849L149.566 68.6417L134.639 55.126L134.203 55.6694ZM149.014 68.9868L156.58 101.572L157.247 101.425L149.681 68.8392L149.014 68.9868ZM156.762 101.167L128.974 114.425L129.277 115.089L157.065 101.831L156.762 101.167ZM128.984 114.421L102.104 126.119L102.386 126.791L129.266 115.093L128.984 114.421ZM102.249 126.093L72.9099 124.555L72.9015 125.279L102.241 126.817L102.249 126.093ZM72.9855 124.567L59.8221 120.729L59.6625 121.428L72.8259 125.267L72.9855 124.567ZM59.9362 120.787L51.058 114.035L50.6703 114.619L59.5485 121.37L59.9362 120.787ZM50.9928 113.996L23.0779 101.005L22.8207 101.668L50.7356 114.658L50.9928 113.996ZM149.732 91.5372L149.79 86.5662L149.102 86.5301L149.045 91.5011L149.732 91.5372Z" fill="url(#paint4_linear)" fill-opacity="0.5"/>
<defs>
<linearGradient id="paint0_linear" x1="49.3702" y1="70.4543" x2="151.859" y2="80.7297" gradientUnits="userSpaceOnUse">
<stop offset="0.0999476" stop-color="#D3D3CC"/>
<stop offset="0.666667" stop-color="#787774"/>
</linearGradient>
<linearGradient id="paint1_linear" x1="80.6274" y1="-33.2506" x2="92.0371" y2="66.0225" gradientUnits="userSpaceOnUse">
<stop stop-color="#DBDBD9"/>
<stop offset="1" stop-color="#7A7976"/>
</linearGradient>
<linearGradient id="paint2_linear" x1="116.161" y1="63.4856" x2="168.03" y2="72.7538" gradientUnits="userSpaceOnUse">
<stop offset="0.270833" stop-color="#5A5954"/>
<stop offset="0.666667" stop-color="#C2C1BD"/>
</linearGradient>
<linearGradient id="paint3_linear" x1="3.19978" y1="68.8022" x2="52.0271" y2="59.8688" gradientUnits="userSpaceOnUse">
<stop offset="0.0999476" stop-color="#D6D4D1"/>
<stop offset="1" stop-color="#92908A" stop-opacity="0.54"/>
</linearGradient>
<linearGradient id="paint4_linear" x1="72.3217" y1="23.6165" x2="81.4945" y2="198.932" gradientUnits="userSpaceOnUse">
<stop stop-color="#CBC7BB"/>
<stop offset="1" stop-color="#ACA9A2"/>
</linearGradient>
</defs>
</svg>