<svg
  width="219"
  height="255"
  viewBox="0 0 219 255"
  fill="none"
  xmlns="http://www.w3.org/2000/svg"
>
<path
    d="M60.7296 30.639L56.4188 42.7483L57.2662 57.6496L64.7665 113.165L72.8061 129.053L96.9872 174.971L87.9502 191.859L74.4612 197.677L68.632 205.43L73.8182 214.405L94.7504 222.268C94.7504 222.268 122.727 220.907 122.929 220.844C123.131 220.78 136.198 214.322 136.198 214.322L139.86 205.977L120.005 188.367L112.073 173.898L134.517 132.489L143.254 113.746L148.962 59.0049L147.68 37.375L141.463 32.3608C141.463 32.3608 116.884 29.2746 116.619 29.2734L93.6829 28.6479L60.7296 30.639Z"
    fill="url(#paint0_linear)"
  />
<path
    d="M60.9319 35.7203L60.8277 30.9177L93.4965 28.6953L116.818 29.4551L141.355 32.4476L147.452 37.3909C141.962 38.4579 130.779 40.6193 129.967 40.7285C129.155 40.8374 118.939 40.8592 113.932 40.8563L88.2609 39.6561L60.9319 35.7203Z"
    fill="url(#paint1_linear)"
    fill-opacity="0.5"
  />
<path
    d="M149.54 59.5309L148.449 43.159L163.765 48.1163L177.712 62.8601L179.385 72.5085L177.316 101.662C163.262 112.004 135.095 132.726 134.856 132.877C134.617 133.028 140.636 120.376 143.676 114.031L144.664 103.169L163.979 86.1541L162.386 69.1751L149.54 59.5309Z"
    fill="url(#paint2_linear)"
  />
<path
    d="M57.5491 57.7483L56.6329 42.5651L43.2909 43.4211L28.8492 57.6583L25.5153 77.2215L37.4222 100.147L73.1172 128.991L64.8898 112.728L63.5042 102.555L42.5221 83.447L44.0766 65.6295L57.5491 57.7483Z"
    fill="url(#paint3_linear)"
  />
<path
    d="M61.069 30.8421L61.0365 30.4799L60.8219 30.4928L60.7468 30.7034L61.069 30.8421ZM65.1058 113.368L64.7655 113.406L64.7743 113.471L64.8041 113.53L65.1058 113.368ZM73.1452 129.256L72.8435 129.418L72.8463 129.423L73.1452 129.256ZM97.3263 175.174L97.6271 175.361L97.7202 175.187L97.6252 175.007L97.3263 175.174ZM88.2894 192.062L88.4296 192.399L88.5344 192.353L88.5902 192.249L88.2894 192.062ZM74.8005 197.88L74.6604 197.544L74.5812 197.578L74.5283 197.648L74.8005 197.88ZM68.9712 205.632L68.6989 205.4L68.5533 205.594L68.6796 205.813L68.9712 205.632ZM74.1572 214.607L73.8657 214.788L73.9327 214.904L74.053 214.949L74.1572 214.607ZM95.0897 222.471L94.9854 222.813L95.0504 222.837L95.1183 222.833L95.0897 222.471ZM136.537 214.525L136.692 214.854L136.8 214.801L136.85 214.687L136.537 214.525ZM140.199 206.18L140.512 206.343L140.623 206.091L140.414 205.906L140.199 206.18ZM120.344 188.57L120.049 188.743L120.081 188.801L120.129 188.844L120.344 188.57ZM112.412 174.101L112.112 173.912L112.015 174.09L112.116 174.274L112.412 174.101ZM134.856 132.692L135.157 132.881L135.161 132.872L135.166 132.862L134.856 132.692ZM143.593 113.949L143.903 114.119L143.928 114.064L143.935 114.002L143.593 113.949ZM149.301 59.2082L149.642 59.2614L149.646 59.2302L149.644 59.1991L149.301 59.2082ZM148.019 37.5782L148.362 37.5691L148.352 37.3983L148.221 37.2929L148.019 37.5782ZM141.802 32.5639L142.004 32.2787L141.926 32.2158L141.83 32.2037L141.802 32.5639ZM116.959 29.4764L116.963 29.8391L116.966 29.8392L116.97 29.8392L116.959 29.4764ZM94.0224 28.851L94.0179 28.4884L94.0037 28.488L93.9899 28.4888L94.0224 28.851ZM60.764 35.6614L60.421 35.6237L60.4251 35.7086L60.764 35.6614ZM88.7022 39.7696L88.6676 40.1289L88.6997 40.1321L88.7022 39.7696ZM148.039 37.572L148.379 37.6365L147.97 37.2141L148.039 37.572ZM137.341 116.544L137.654 116.705L137.681 116.608L137.341 116.544ZM28.9704 58.0439L28.7305 57.7749L28.6326 57.9643L28.9704 58.0439ZM163.834 48.1409L164.072 47.8895L164.01 47.8232L163.926 47.7953L163.834 48.1409ZM177.698 62.8138L178.036 62.7642L178.017 62.6473L177.936 62.5624L177.698 62.8138ZM179.324 72.6023L179.667 72.6447L179.67 72.5985L179.662 72.5527L179.324 72.6023ZM177.13 101.754L177.333 102.055L177.461 101.962L177.473 101.797L177.13 101.754ZM163.972 85.7218L164.316 85.74L164.316 85.7187L164.314 85.6975L163.972 85.7218ZM88.2309 39.978L88.5545 39.8692L87.8925 39.8997L88.2309 39.978ZM123.324 221.021L123.106 221.292L123.666 221L123.324 221.021ZM88.3351 192.048L88.5174 191.747L88.0463 191.839L88.3351 192.048ZM43.3308 43.8354L43.2966 43.4732L43.0908 43.5663L43.3308 43.8354ZM37.4758 100.511L37.1752 100.674L37.2738 100.796L37.4758 100.511ZM25.5416 77.3537L25.2038 77.274L25.1812 77.4013L25.2412 77.5177L25.5416 77.3537ZM143.652 113.931L143.793 114.267L143.803 114.262L143.652 113.931ZM148.948 54.5715L149.107 54.2568L148.729 54.8432L148.948 54.5715ZM65.3905 113.501L65.5844 113.209L65.5191 113.17L65.3905 113.501ZM60.7468 30.7034L56.4358 42.8127L57.0803 43.0901L61.3912 30.9808L60.7468 30.7034ZM56.415 42.9596L57.2624 57.8608L57.9485 57.8445L57.1011 42.9433L56.415 42.9596ZM57.2652 57.8906L64.7655 113.406L65.446 113.33L57.9456 57.8147L57.2652 57.8906ZM64.8041 113.53L72.8435 129.418L73.4471 129.095L65.4076 113.207L64.8041 113.53ZM72.8463 129.423L97.0274 175.341L97.6252 175.007L73.4441 129.089L72.8463 129.423ZM97.0255 174.987L87.9887 191.875L88.5902 192.249L97.6271 175.361L97.0255 174.987ZM88.1493 191.725L74.6604 197.544L74.9405 198.217L88.4296 192.399L88.1493 191.725ZM74.5283 197.648L68.6989 205.4L69.2434 205.865L75.0726 198.112L74.5283 197.648ZM68.6796 205.813L73.8657 214.788L74.4488 214.427L69.2627 205.452L68.6796 205.813ZM74.053 214.949L94.9854 222.813L95.194 222.13L74.2615 214.266L74.053 214.949ZM95.0897 222.471C95.1183 222.833 95.1184 222.833 95.1187 222.834C95.1189 222.834 95.1192 222.834 95.1196 222.833C95.1204 222.833 95.1217 222.833 95.1234 222.833C95.1269 222.833 95.1319 222.833 95.1386 222.833C95.152 222.832 95.1721 222.831 95.1986 222.829C95.2515 222.827 95.3301 222.823 95.4326 222.818C95.6375 222.808 95.9382 222.794 96.3209 222.775C97.0863 222.738 98.1799 222.684 99.4928 222.62C102.119 222.491 105.622 222.319 109.132 222.145C112.642 221.971 116.158 221.795 118.809 221.658C120.135 221.59 121.245 221.531 122.03 221.488C122.422 221.467 122.734 221.449 122.951 221.435C123.06 221.428 123.145 221.422 123.207 221.418C123.237 221.416 123.262 221.413 123.283 221.412C123.292 221.411 123.303 221.41 123.313 221.408C123.313 221.408 123.344 221.405 123.377 221.395L123.159 220.698C123.179 220.692 123.194 220.689 123.196 220.689C123.2 220.689 123.203 220.688 123.203 220.688C123.203 220.688 123.201 220.688 123.194 220.689C123.181 220.69 123.161 220.692 123.132 220.694C123.075 220.699 122.993 220.704 122.885 220.711C122.67 220.724 122.36 220.742 121.968 220.763C121.184 220.807 120.076 220.865 118.75 220.933C116.099 221.07 112.584 221.246 109.074 221.42C105.564 221.594 102.061 221.766 99.4353 221.895C98.1224 221.959 97.0289 222.013 96.2634 222.05C95.8808 222.069 95.5802 222.083 95.3752 222.093C95.2727 222.098 95.1942 222.102 95.1412 222.105C95.1148 222.106 95.0946 222.107 95.0813 222.108C95.0745 222.108 95.0695 222.108 95.0661 222.108C95.0644 222.108 95.063 222.108 95.0622 222.109C95.0619 222.109 95.0616 222.109 95.0612 222.108C95.061 222.108 95.0609 222.108 95.0897 222.471ZM123.377 221.395C123.408 221.385 123.45 221.365 123.47 221.356C123.503 221.341 123.547 221.32 123.601 221.295C123.709 221.243 123.86 221.17 124.049 221.079C124.426 220.896 124.954 220.638 125.581 220.331C126.835 219.716 128.487 218.903 130.133 218.092C131.779 217.28 133.419 216.471 134.647 215.864C135.261 215.561 135.773 215.308 136.13 215.132C136.309 215.044 136.45 214.974 136.546 214.927C136.593 214.903 136.63 214.885 136.655 214.873C136.667 214.867 136.676 214.862 136.683 214.859C136.686 214.858 136.688 214.856 136.69 214.855C136.691 214.855 136.691 214.855 136.692 214.855C136.692 214.854 136.692 214.854 136.692 214.854C136.692 214.854 136.692 214.854 136.537 214.525C136.382 214.195 136.382 214.195 136.382 214.195C136.382 214.195 136.382 214.195 136.381 214.196C136.381 214.196 136.38 214.196 136.38 214.196C136.378 214.197 136.376 214.198 136.372 214.2C136.366 214.203 136.357 214.207 136.344 214.213C136.32 214.226 136.283 214.244 136.235 214.268C136.139 214.315 135.999 214.384 135.82 214.473C135.462 214.649 134.951 214.902 134.337 215.205C133.109 215.811 131.469 216.621 129.823 217.432C128.178 218.243 126.525 219.056 125.272 219.671C124.646 219.978 124.119 220.235 123.743 220.417C123.555 220.509 123.405 220.581 123.299 220.631C123.246 220.656 123.205 220.676 123.177 220.689C123.136 220.707 123.141 220.704 123.159 220.698L123.377 221.395ZM136.85 214.687L140.512 206.343L139.886 206.018L136.224 214.362L136.85 214.687ZM140.414 205.906L120.56 188.296L120.129 188.844L139.984 206.454L140.414 205.906ZM120.64 188.398L112.708 173.928L112.116 174.274L120.049 188.743L120.64 188.398ZM112.712 174.29L135.157 132.881L134.556 132.503L112.112 173.912L112.712 174.29ZM135.166 132.862L143.903 114.119L143.284 113.779L134.547 132.522L135.166 132.862ZM143.935 114.002L149.642 59.2614L148.959 59.1551L143.251 113.896L143.935 114.002ZM149.644 59.1991L148.362 37.5691L147.676 37.5872L148.958 59.2171L149.644 59.1991ZM148.221 37.2929L142.004 32.2787L141.6 32.8491L147.817 37.8634L148.221 37.2929ZM141.802 32.5639C141.83 32.2037 141.83 32.2036 141.83 32.2036C141.829 32.2036 141.829 32.2035 141.829 32.2035C141.828 32.2035 141.827 32.2033 141.825 32.2031C141.822 32.2028 141.818 32.2021 141.812 32.2014C141.8 32.2 141.783 32.1977 141.759 32.1948C141.713 32.1889 141.644 32.1803 141.554 32.169C141.374 32.1464 141.11 32.1132 140.773 32.071C140.101 31.9866 139.139 31.8661 137.985 31.7215C135.677 31.4321 132.596 31.0462 129.507 30.6604C126.418 30.2745 123.321 29.8887 120.98 29.599C119.809 29.4543 118.826 29.3337 118.129 29.2491C117.78 29.2067 117.501 29.1735 117.306 29.1507C117.209 29.1394 117.131 29.1306 117.076 29.1245C117.033 29.1199 116.977 29.1138 116.947 29.1136L116.97 29.8392C116.957 29.8391 116.965 29.8392 117.031 29.8463C117.084 29.8521 117.159 29.8606 117.257 29.8718C117.45 29.8945 117.727 29.9276 118.076 29.9699C118.773 30.0544 119.754 30.1749 120.925 30.3198C123.266 30.6092 126.363 30.9951 129.452 31.381C132.541 31.7667 135.621 32.1525 137.93 32.4419C139.084 32.5866 140.045 32.7071 140.717 32.7915C141.054 32.8337 141.318 32.8669 141.498 32.8895C141.588 32.9009 141.657 32.9094 141.704 32.9153C141.727 32.9182 141.745 32.9204 141.756 32.9219C141.762 32.9226 141.766 32.9233 141.769 32.9237C141.771 32.9238 141.772 32.924 141.773 32.924C141.773 32.924 141.773 32.9242 141.774 32.9241C141.774 32.9242 141.774 32.9242 141.802 32.5639ZM116.955 29.1137L94.0179 28.4884L94.0263 29.2137L116.963 29.8391L116.955 29.1137ZM93.9899 28.4888L61.0365 30.4799L61.1015 31.2043L94.0544 29.2133L93.9899 28.4888ZM60.7264 30.8043L60.421 35.6237L61.1066 35.6992L61.4121 30.8797L60.7264 30.8043ZM60.729 36.0208L88.6676 40.1289L88.7371 39.4103L60.7985 35.3022L60.729 36.0208ZM88.6997 40.1321L113.943 41.3366L113.947 40.6118L88.7051 39.4071L88.6997 40.1321ZM113.963 41.337L129.957 41.1113L129.922 40.3856L113.927 40.6115L113.963 41.337ZM130.008 41.1064L148.108 37.9299L147.97 37.2141L129.871 40.3905L130.008 41.1064ZM147.699 37.5074L137 116.479L137.681 116.608L148.379 37.6365L147.699 37.5074ZM137.683 116.52L130.281 40.7248L129.597 40.7723L136.999 116.568L137.683 116.52ZM64.0386 103.066L42.9314 83.6688L42.4913 84.2084L63.5985 103.606L64.0386 103.066ZM43.0534 83.9873L44.7264 65.9293L44.0423 65.8318L42.3694 83.8899L43.0534 83.9873ZM44.564 66.1967L57.7851 58.1688L57.4258 57.5364L44.2047 65.5644L44.564 66.1967ZM57.5995 57.4899L40.5901 57.123L40.6019 57.8485L57.6113 58.2154L57.5995 57.4899ZM40.5675 57.1233L28.942 57.6815L28.9989 58.4064L40.6244 57.8482L40.5675 57.1233ZM148.205 43.3025L163.741 48.4864L163.926 47.7953L148.389 42.6113L148.205 43.3025ZM163.595 48.3921L177.459 63.0649L177.936 62.5624L164.072 47.8895L163.595 48.3921ZM177.359 62.8635L178.986 72.6519L179.662 72.5527L178.036 62.7642L177.359 62.8635ZM178.981 72.5603L176.788 101.712L177.473 101.797L179.667 72.6447L178.981 72.5603ZM176.927 101.454L134.712 132.373L135.118 132.974L177.333 102.055L176.927 101.454ZM144.911 103.462L164.202 86.001L163.743 85.4425L144.452 102.903L144.911 103.462ZM164.314 85.6975L162.647 68.9271L161.963 68.976L163.63 85.746L164.314 85.6975ZM162.497 68.6589L149.512 58.9091L149.128 59.4951L162.113 69.2444L162.497 68.6589ZM60.4251 35.7086L73.9298 120.299L74.6074 120.205L61.1029 35.6142L60.4251 35.7086ZM73.9562 120.391L97.1986 174.827L97.8233 174.55L74.5811 120.114L73.9562 120.391ZM97.1718 174.734L101.295 201.407L101.974 201.317L97.85 174.643L97.1718 174.734ZM101.307 201.239L94.8081 222.333L95.4624 222.58L101.962 201.486L101.307 201.239ZM113.602 40.9733L116.428 125.628L117.115 125.63L114.288 40.9751L113.602 40.9733ZM116.435 125.544L106.488 177.251L107.162 177.421L117.109 125.714L116.435 125.544ZM74.6068 120.331L88.5687 40.0565L87.8925 39.8997L73.9306 120.174L74.6068 120.331ZM97.4333 175.038L106.747 177.687L106.903 176.986L97.5886 174.338L97.4333 175.038ZM106.998 177.656L112.644 174.402L112.297 173.763L106.652 177.017L106.998 177.656ZM112.137 174.156L122.991 221.094L123.658 220.948L112.804 174.009L112.137 174.156ZM123.666 221L120.739 188.533L120.055 188.575L122.982 221.042L123.666 221ZM74.4852 214.803L88.6237 192.255L88.0463 191.839L73.9077 214.387L74.4852 214.803ZM88.1526 192.348L101.452 201.663L101.817 201.062L88.5174 191.747L88.1526 192.348ZM101.97 201.456L107.16 177.43L106.49 177.243L101.299 201.269L101.97 201.456ZM107.145 177.217L87.7523 123.972L87.1119 124.21L106.505 177.455L107.145 177.217ZM87.7756 124.108L88.5744 39.9953L87.8873 39.9607L87.0884 124.073L87.7756 124.108ZM87.9072 40.0869L116.448 125.737L117.095 125.52L88.5545 39.8692L87.9072 40.0869ZM93.4118 28.9169L93.96 39.9978L94.6466 39.987L94.0979 28.9063L93.4118 28.9169ZM116.617 29.4644L116.455 40.9505L117.143 40.9885L117.304 29.5024L116.617 29.4644ZM42.9945 43.7476L40.2596 57.398L40.9323 57.5735L43.6672 43.9231L42.9945 43.7476ZM40.2523 57.4766L40.5482 82.5486L41.2355 82.5668L40.9396 57.4949L40.2523 57.4766ZM40.5548 82.4735L37.1387 100.426L37.8128 100.595L41.2289 82.6419L40.5548 82.4735ZM37.4562 100.872L63.3077 103.453L63.3469 102.731L37.4953 100.149L37.4562 100.872ZM25.4478 77.6987L40.798 82.9027L40.9857 82.2126L25.6354 77.0086L25.4478 77.6987ZM40.6982 82.8496L42.5178 84.2305L42.905 83.6467L41.0854 82.2658L40.6982 82.8496ZM44.6936 65.7347L40.9052 57.3399L40.2868 57.6317L44.0751 66.0264L44.6936 65.7347ZM40.8244 57.7656L56.9865 43.2313L56.5296 42.6715L40.3675 57.2059L40.8244 57.7656ZM56.7238 42.5893L43.2966 43.4732L43.365 44.1975L56.7922 43.3136L56.7238 42.5893ZM43.0908 43.5663L28.7305 57.7749L29.2104 58.313L43.5708 44.1044L43.0908 43.5663ZM28.6326 57.9643L25.2038 77.274L25.8795 77.4334L29.3083 58.1236L28.6326 57.9643ZM25.2412 77.5177L37.1752 100.674L37.7762 100.347L25.8421 77.1897L25.2412 77.5177ZM37.2738 100.796L72.963 129.536L73.3667 128.965L37.6775 100.225L37.2738 100.796ZM123.543 220.75L101.853 201.091L101.416 201.634L123.106 221.292L123.543 220.75ZM101.952 201.513L112.788 174.234L112.153 173.932L101.317 201.211L101.952 201.513ZM112.784 174.243L137.654 116.705L137.027 116.383L112.157 173.922L112.784 174.243ZM143.908 114.182L164.172 90.9441L163.658 90.4417L143.395 113.68L143.908 114.182ZM163.649 90.9126L171.174 100.892L171.706 100.453L164.181 90.4736L163.649 90.9126ZM171.392 101.03L177.082 102.111L177.179 101.397L171.488 100.316L171.392 101.03ZM162.473 69.2746L164.042 68.4099L163.706 67.7638L162.137 68.6285L162.473 69.2746ZM163.794 68.4365L179.244 72.9516L179.404 72.2529L163.954 67.7377L163.794 68.4365ZM179.484 72.2877L149.107 54.2568L148.788 54.8861L179.164 72.9169L179.484 72.2877ZM148.729 54.8432L163.656 68.3587L164.092 67.8155L149.165 54.2998L148.729 54.8432ZM163.54 68.1606L171.106 100.746L171.773 100.599L164.208 68.013L163.54 68.1606ZM171.289 100.341L143.501 113.599L143.803 114.262L171.591 101.004L171.289 100.341ZM143.511 113.594L116.631 125.292L116.913 125.965L143.793 114.267L143.511 113.594ZM116.776 125.266L87.4363 123.729L87.4279 124.453L116.767 125.991L116.776 125.266ZM87.5118 123.741L74.3485 119.903L74.1889 120.602L87.3523 124.44L87.5118 123.741ZM74.4625 119.961L65.5844 113.209L65.1967 113.793L74.0748 120.544L74.4625 119.961ZM65.5191 113.17L37.6043 100.179L37.347 100.841L65.262 113.832L65.5191 113.17ZM164.258 90.711L164.316 85.74L163.629 85.7039L163.571 90.6749L164.258 90.711Z"
    fill="url(#paint4_linear)"
    fill-opacity="0.5"
  />
<defs>
<linearGradient
      id="paint0_linear"
      x1="63.8966"
      y1="69.6281"
      x2="166.385"
      y2="79.9035"
      gradientUnits="userSpaceOnUse"
    >
<stop offset="0.0999476" stop-color="#EFE727" />
<stop offset="0.666667" stop-color="#855D10" />
</linearGradient>
<linearGradient
      id="paint1_linear"
      x1="95.1538"
      y1="-34.0768"
      x2="106.564"
      y2="65.1963"
      gradientUnits="userSpaceOnUse"
    >
<stop stop-color="#E0D324" />
<stop offset="1" stop-color="#987614" />
</linearGradient>
<linearGradient
      id="paint2_linear"
      x1="130.688"
      y1="62.6595"
      x2="182.556"
      y2="71.9277"
      gradientUnits="userSpaceOnUse"
    >
<stop offset="0.270833" stop-color="#594511" />
<stop offset="0.666667" stop-color="#E2B513" stop-opacity="0.85" />
</linearGradient>
<linearGradient
      id="paint3_linear"
      x1="17.7262"
      y1="67.976"
      x2="66.5535"
      y2="59.0426"
      gradientUnits="userSpaceOnUse"
    >
<stop offset="0.0999476" stop-color="#EFC327" />
<stop offset="1" stop-color="#F5C619" stop-opacity="0.54" />
</linearGradient>
<linearGradient
      id="paint4_linear"
      x1="86.848"
      y1="22.7903"
      x2="96.0208"
      y2="198.106"
      gradientUnits="userSpaceOnUse"
    >
<stop stop-color="#FAC713" />
<stop offset="1" stop-color="#F4A50C" />
</linearGradient>
</defs>
</svg>
