<?xml version="1.0" encoding="UTF-8" standalone="no"?>
<svg
   xmlns:dc="http://purl.org/dc/elements/1.1/"
   xmlns:cc="http://creativecommons.org/ns#"
   xmlns:rdf="http://www.w3.org/1999/02/22-rdf-syntax-ns#"
   xmlns:svg="http://www.w3.org/2000/svg"
   xmlns="http://www.w3.org/2000/svg"
   viewBox="0 0 374.50668 88.41333"
   height="83.41333"
   width="202.50668"
   xml:space="preserve"
   id="svg2"
   version="1.1"><metadata
     id="metadata8"><rdf:RDF><cc:Work
         rdf:about=""><dc:format>image/svg+xml</dc:format><dc:type
           rdf:resource="http://purl.org/dc/dcmitype/StillImage" /></cc:Work></rdf:RDF></metadata><defs
     id="defs6" /><g
     transform="matrix(1.3333333,0,0,-1.3333333,0,88.413333)"
     id="g10"><g
       transform="scale(0.1)"
       id="g12"><path
         id="path14"
         style="fill:#2d4fa8;fill-opacity:1;fill-rule:nonzero;stroke:none"
         d="M 650.934,326.289 C 650.934,146.09 505.23,0 325.473,0 145.719,0 0,146.09 0,326.289 c 0,180.207 145.719,326.293 325.473,326.293 179.757,0 325.461,-146.086 325.461,-326.293" /><path
         id="path16"
         style="fill:#ffffff;fill-opacity:1;fill-rule:nonzero;stroke:none"
         d="M 28.1992,444.742 466.012,618.297 82.2695,396.016 495.328,551.246 107.699,340.383 522.422,491.977 135.355,279.906 550.289,431.031 165.316,217.578 576.031,374.758 192.969,157.078 605.227,310.891 220.074,97.8125 632.5,255.496 223.074,20.1992 28.1992,444.742" /><path
         id="path18"
         style="fill:#2d4fa8;fill-opacity:1;fill-rule:nonzero;stroke:none"
         d="m 1229.39,663.082 14.24,-216.809 h -14.24 c -19.33,65.133 -46.91,111.993 -82.73,140.625 -35.86,28.633 -78.86,42.95 -129.03,42.95 -42.087,0 -80.091,-10.707 -114.067,-32.071 -33.973,-21.363 -60.68,-55.464 -80.165,-102.246 -19.484,-46.785 -29.203,-104.965 -29.203,-174.551 0,-57.414 9.172,-107.164 27.547,-149.277 18.348,-42.133 45.992,-74.4257 82.883,-96.8788 36.895,-22.4531 78.98,-33.6797 126.305,-33.6797 41.1,0 77.35,8.8047 108.8,26.4102 31.43,17.6055 65.97,52.5703 103.66,104.9413 L 1257.88,163 C 1226.05,106.625 1188.94,65.3789 1146.51,39.2188 1104.07,13.082 1053.71,0 995.398,0 890.258,0 808.855,38.9688 751.145,116.91 c -43.047,57.961 -64.563,126.231 -64.563,204.813 0,63.277 14.168,121.41 42.531,174.425 28.364,52.993 67.407,94.063 117.106,123.215 49.703,29.129 104.004,43.719 162.901,43.719 45.8,0 91,-11.324 135.56,-33.949 13.08,-6.926 22.42,-10.363 28.04,-10.363 8.4,0 15.72,2.968 21.98,8.953 8.09,8.48 13.85,20.277 17.28,35.359 h 17.41" /><path
         id="path20"
         style="fill:#2d4fa8;fill-opacity:1;fill-rule:nonzero;stroke:none"
         d="m 1277.75,648.84 h 172.19 l 389.41,-475.031 v 365.836 c 0,38.625 -4.4,62.734 -13.16,72.328 -11.59,12.953 -29.92,19.457 -54.97,19.457 h -22.08 v 17.41 h 221.56 v -17.41 h -22.55 c -26.96,0 -46.04,-8.035 -57.32,-24.106 -6.9,-9.894 -10.34,-32.469 -10.34,-67.679 V 3.95703 h -16.84 L 1443.71,514.941 V 123.438 c 0,-38.6255 4.23,-62.7349 12.69,-72.3286 11.89,-12.9805 30.22,-19.4571 54.97,-19.4571 h 22.55 V 14.2422 h -221.56 v 17.4101 h 22.08 c 27.25,0 46.52,8.0352 57.79,24.1094 6.88,9.8867 10.34,32.4414 10.34,67.6763 v 441.527 c -18.4,21.66 -32.37,35.953 -41.87,42.875 -9.49,6.926 -23.44,13.355 -41.83,19.336 -9.05,2.82 -22.75,4.254 -41.12,4.254 v 17.41" /><path
         id="path22"
         style="fill:#2d4fa8;fill-opacity:1;fill-rule:nonzero;stroke:none"
         d="M 2418.67,663.082 V 446.273 h -17.41 c -5.59,41.372 -15.6,74.305 -30.04,98.836 -14.45,24.504 -35.02,43.965 -61.72,58.379 -26.71,14.395 -54.35,21.614 -82.89,21.614 -32.29,0 -59,-9.891 -80.11,-29.672 -21.12,-19.785 -31.68,-42.285 -31.68,-67.508 0,-19.336 6.68,-36.942 20.03,-52.817 19.24,-23.367 65.06,-54.523 137.41,-93.441 59,-31.777 99.38,-56.156 121.19,-73.117 21.78,-16.965 38.54,-36.969 50.31,-60.016 11.75,-23.047 17.63,-47.203 17.63,-72.426 0,-47.968 -18.59,-89.3159 -55.78,-124.0308 C 2368.42,17.3594 2320.57,0 2262.09,0 c -18.37,0 -35.65,1.43359 -51.82,4.25391 -9.65,1.58203 -29.65,7.34379 -59.99,17.25779 -30.34,9.918 -49.55,14.8867 -57.64,14.8867 -7.76,0 -13.92,-2.375 -18.42,-7.0976 C 2069.69,24.5547 2066.35,14.7852 2064.18,0 h -17.41 v 216.809 h 17.41 c 8.06,-45.375 18.94,-79.325 32.59,-101.852 13.65,-22.5507 34.54,-41.2695 62.63,-56.1797 28.09,-14.9375 58.88,-22.3789 92.41,-22.3789 38.79,0 69.46,10.2618 91.96,30.836 22.5,20.5703 33.75,44.8786 33.75,72.9416 0,15.582 -4.28,31.304 -12.81,47.207 -8.53,15.875 -21.78,30.687 -39.78,44.41 -12.12,9.348 -45.21,29.152 -99.26,59.469 -54.08,30.289 -92.55,54.496 -115.42,72.597 -22.9,18.098 -40.26,38.079 -52.08,59.938 -11.82,21.859 -17.73,45.894 -17.73,72.129 0,45.547 17.38,84.816 52.2,117.75 34.82,32.937 79.1,49.406 132.88,49.406 33.56,0 69.14,-8.258 106.75,-24.727 17.41,-7.789 29.67,-11.671 36.82,-11.671 8.06,0 14.66,2.398 19.81,7.218 5.11,4.825 9.24,14.539 12.36,29.18 h 17.41" /><path
         id="path24"
         style="fill:#2d4fa8;fill-opacity:1;fill-rule:nonzero;stroke:none"
         d="M 2808.75,31.6523 V 14.2422 h -270.61 v 17.4101 h 22.32 c 26.02,0 44.93,7.6368 56.73,22.918 7.42,9.9649 11.15,33.9766 11.15,72.0317 V 536.48 c 0,32.094 -2.03,53.309 -6.03,63.622 -3.12,7.789 -9.47,14.492 -19.07,20.105 -13.65,7.465 -27.91,11.223 -42.78,11.223 h -22.32 v 17.41 h 270.61 v -17.41 h -22.68 c -25.59,0 -44.23,-7.641 -55.95,-22.922 -7.72,-9.988 -11.58,-34 -11.58,-72.028 V 126.602 c 0,-32.1176 2.01,-53.3364 6.01,-63.6215 3.07,-7.8164 9.55,-14.5157 19.44,-20.1016 13.25,-7.4961 27.27,-11.2266 42.08,-11.2266 h 22.68" /></g></g></svg>