<svg width="264" height="264" viewBox="0 0 264 264" fill="none" xmlns="http://www.w3.org/2000/svg">
<circle cx="132" cy="132" r="122" stroke="#27A5EF" stroke-width="20"/>
<path d="M181.98 159.34C181.98 168.52 178.58 176.34 171.78 182.8C165.093 189.147 155.347 193 142.54 194.36V213.4H128.6V194.53C120.213 193.963 112.28 192.433 104.8 189.94C97.32 187.447 91.37 184.273 86.95 180.42L94.6 163.25C98.7933 166.65 103.893 169.54 109.9 171.92C115.907 174.187 122.14 175.603 128.6 176.17V142.17C120.553 140.243 113.81 138.147 108.37 135.88C103.043 133.5 98.5667 130.1 94.94 125.68C91.3133 121.147 89.5 115.197 89.5 107.83C89.5 98.65 92.8433 90.83 99.53 84.37C106.217 77.91 115.907 74.0567 128.6 72.81V53.6H142.54V72.47C148.887 72.81 155.063 73.8867 161.07 75.7C167.19 77.5133 172.517 79.8933 177.05 82.84L170.08 100.01C161.467 95.0233 152.287 91.9633 142.54 90.83V125.17C150.7 127.097 157.443 129.193 162.77 131.46C168.21 133.727 172.743 137.127 176.37 141.66C180.11 146.08 181.98 151.973 181.98 159.34ZM111.43 106.81C111.43 110.55 112.903 113.553 115.85 115.82C118.797 118.087 123.047 120.013 128.6 121.6V91.34C122.82 92.2467 118.513 94.06 115.68 96.78C112.847 99.5 111.43 102.843 111.43 106.81ZM142.54 175.83C148.547 174.923 152.967 173.167 155.8 170.56C158.747 167.953 160.22 164.723 160.22 160.87C160.22 157.017 158.69 153.957 155.63 151.69C152.57 149.31 148.207 147.327 142.54 145.74V175.83Z" fill="white"/>
</svg>
