<svg width="639" height="297" viewBox="0 0 639 297" fill="none" xmlns="http://www.w3.org/2000/svg">
<g filter="url(#filter0_d)">
<path d="M9.45819 88.568C8.88219 94.04 8.45019 96.92 6.72219 101.384C11.7622 105.416 18.5302 109.592 30.4822 109.592C52.6582 109.592 65.7622 94.76 65.7622 77.192C65.7622 45.368 20.4022 56.6 20.4022 29.672C20.4022 19.16 28.1782 11.816 38.9782 11.816C49.7782 11.816 54.0982 20.024 56.1142 25.352H57.8422C58.9942 19.88 60.0022 16.568 61.7302 13.256C55.9702 8.648 49.4902 6.488 40.4182 6.488C21.2662 6.488 9.17019 17.72 9.17019 33.704C9.17019 67.544 54.5302 56.168 54.5302 82.664C54.5302 94.184 46.7542 103.544 33.9382 103.544C21.5542 103.544 14.3542 95.336 11.1862 88.568H9.45819ZM77.2822 75.32C77.2822 94.472 91.5382 109.16 112.274 109.16C121.202 109.16 130.562 104.984 136.322 100.376L137.186 93.32L136.466 92.888C131.426 98.648 122.498 103.112 114.866 103.112C98.8822 103.112 89.9542 91.448 89.9542 76.472C89.9542 75.176 89.9542 73.88 90.0982 72.44C96.4342 72.296 102.626 72.008 108.962 72.008C119.186 72.008 129.41 72.296 139.778 72.44C139.922 70.568 140.066 68.696 140.066 66.824C140.066 50.84 130.418 37.448 110.258 37.448C89.0902 37.448 77.2822 51.992 77.2822 75.32ZM110.546 42.056C125.522 42.056 128.258 56.744 128.258 66.968C122.21 67.112 115.442 67.4 109.106 67.4C103.058 67.4 96.2902 67.112 90.3862 66.968C91.1062 56.6 96.4342 42.056 110.546 42.056ZM149.282 75.32C149.282 94.472 163.538 109.16 184.274 109.16C193.202 109.16 202.562 104.984 208.322 100.376L209.186 93.32L208.466 92.888C203.426 98.648 194.498 103.112 186.866 103.112C170.882 103.112 161.954 91.448 161.954 76.472C161.954 75.176 161.954 73.88 162.098 72.44C168.434 72.296 174.626 72.008 180.962 72.008C191.186 72.008 201.41 72.296 211.778 72.44C211.922 70.568 212.066 68.696 212.066 66.824C212.066 50.84 202.418 37.448 182.258 37.448C161.09 37.448 149.282 51.992 149.282 75.32ZM182.546 42.056C197.522 42.056 200.258 56.744 200.258 66.968C194.21 67.112 187.442 67.4 181.106 67.4C175.058 67.4 168.29 67.112 162.386 66.968C163.106 56.6 168.434 42.056 182.546 42.056ZM281.262 66.824C281.262 82.232 281.262 97.496 280.11 107.72C282.558 107.288 284.862 107 287.166 107C289.47 107 291.774 107.288 294.222 107.72C293.502 98.792 293.07 79.352 293.07 65.24C299.262 53.144 309.63 36.44 327.918 8.35999C326.046 8.79199 324.174 9.08 322.302 9.08C320.43 9.08 318.558 8.79199 316.686 8.35999C308.91 24.776 298.398 44.216 289.47 58.184C279.534 41.048 270.462 24.776 262.11 8.35999C259.518 8.79199 256.782 9.08 254.19 9.08C251.598 9.08 248.862 8.79199 246.27 8.35999C252.318 17.432 275.502 56.888 281.262 66.824ZM317.61 73.304C317.61 99.512 335.898 109.16 352.602 109.16C369.306 109.16 387.594 99.512 387.594 73.304C387.594 47.096 369.306 37.448 352.602 37.448C335.898 37.448 317.61 47.096 317.61 73.304ZM330.282 73.304C330.282 57.176 335.61 42.056 352.602 42.056C369.594 42.056 374.922 57.176 374.922 73.304C374.922 89.432 369.594 104.552 352.602 104.552C335.61 104.552 330.282 89.432 330.282 73.304ZM403.53 85.544C403.53 100.52 412.602 109.16 427.578 109.16C436.65 109.16 445.146 104.264 450.042 95.336H450.33C450.33 99.368 450.33 103.544 450.042 107.72C451.914 107.288 453.786 107 455.658 107C457.53 107 459.402 107.288 461.274 107.72C460.842 99.656 460.698 91.16 460.698 82.664C460.698 67.4 460.842 53.864 461.706 38.888C459.834 39.32 457.962 39.608 455.802 39.608C453.642 39.608 451.77 39.32 449.754 38.888C450.042 45.8 450.042 54.728 450.042 62.504C450.042 85.112 449.898 86.264 447.018 92.456C444.57 97.64 439.098 101.672 431.034 101.672C425.418 101.672 421.386 99.368 418.65 96.344C416.202 93.608 414.186 88.856 414.186 78.92C414.186 64.808 414.762 50.12 415.626 38.888C413.61 39.32 411.594 39.608 409.722 39.608C407.85 39.608 405.69 39.32 403.674 38.888C403.818 46.952 403.962 55.016 403.962 61.784C403.962 68.84 403.53 75.464 403.53 85.544ZM525.064 53.288H526.648C529.96 47.096 537.16 43.496 544.792 43.496C556.312 43.496 560.632 51.992 560.632 61.64C560.632 67.256 559.912 68.408 539.032 71.72C526.504 73.736 518.728 79.928 518.728 91.448C518.728 102.392 528.232 109.16 537.88 109.16C547.672 109.16 553.576 105.56 560.488 98.648C561.064 103.544 564.232 107.576 570.424 107.576C574.168 107.576 577.624 106.424 579.64 105.56V102.392C578.632 102.968 577.48 102.968 576.616 102.968C571 102.968 571 97.064 571 92.312C571 80.216 571.576 69.56 571.576 58.76C571.576 45.944 562.072 37.448 548.248 37.448C540.616 37.448 533.704 39.32 525.064 45.8V53.288ZM560.056 93.032C556.744 98.36 550.408 103.112 543.064 103.112C536.728 103.112 530.536 98.504 530.536 89.432C530.536 73.736 550.696 74.744 560.632 71.432L560.056 93.032ZM596.056 24.632C596.344 30.824 596.488 37.016 596.632 40.76C594.616 40.76 591.448 40.616 587.128 40.328C587.272 41.336 587.416 42.2 587.416 43.208C587.416 44.36 587.272 45.368 587.128 46.52C590.872 46.232 594.04 46.232 596.92 46.232C596.776 67.688 595.912 80.648 595.912 91.16C595.912 102.392 601.672 109.16 613.624 109.16C617.224 109.16 621.4 108.152 624.712 107V103.544C622.84 104.12 619.816 104.552 618.232 104.552C606.856 104.552 606.568 93.608 606.568 82.808C606.568 70.28 607.288 47.672 607.576 46.232C611.032 46.232 617.8 46.232 622.84 46.52C622.696 45.512 622.696 44.504 622.696 43.496C622.696 42.488 622.696 41.48 622.84 40.472C616.216 40.76 609.592 40.904 607.576 40.904C607.864 33.848 608.152 26.792 608.728 19.592H608.008L596.056 24.632ZM118.557 223.696C108.477 223.84 98.5413 224.128 88.4613 224.128C78.3813 224.128 68.4453 223.84 58.3653 223.696V218.656C58.3653 206.272 58.9413 193.744 59.5173 181.36C57.0693 181.792 54.7653 182.08 52.4613 182.08C50.1573 182.08 47.8533 181.792 45.4053 181.36C45.9813 193.744 46.5573 206.272 46.5573 218.656V243.424C46.5573 255.808 45.9813 268.336 45.4053 280.72C47.8533 280.288 50.1573 280 52.4613 280C54.7653 280 57.0693 280.288 59.5173 280.72C58.9413 268.336 58.3653 255.808 58.3653 243.424V230.464C68.4453 230.32 78.3813 230.176 88.4613 230.176C98.5413 230.176 108.477 230.32 118.557 230.464V243.424C118.557 255.808 117.981 268.336 117.405 280.72C119.853 280.288 122.157 280 124.461 280C126.765 280 129.069 280.288 131.517 280.72C130.941 268.336 130.365 255.808 130.365 243.424V218.656C130.365 206.272 130.941 193.744 131.517 181.36C129.069 181.792 126.765 182.08 124.461 182.08C122.157 182.08 119.853 181.792 117.405 181.36C117.981 193.744 118.557 206.272 118.557 218.656V223.696ZM149.563 246.304C149.563 272.512 167.851 282.16 184.555 282.16C201.259 282.16 219.547 272.512 219.547 246.304C219.547 220.096 201.259 210.448 184.555 210.448C167.851 210.448 149.563 220.096 149.563 246.304ZM162.235 246.304C162.235 230.176 167.563 215.056 184.555 215.056C201.547 215.056 206.875 230.176 206.875 246.304C206.875 262.432 201.547 277.552 184.555 277.552C167.563 277.552 162.235 262.432 162.235 246.304ZM269.467 222.976C269.467 219.088 269.467 213.616 270.475 211.312C268.603 210.592 267.595 210.448 265.867 210.448C259.243 210.448 252.331 215.632 246.859 226L246.571 225.856C246.571 222.256 246.571 218.8 247.291 211.888C245.419 212.32 243.403 212.608 241.531 212.608C239.515 212.608 237.643 212.32 235.483 211.888C236.059 224.272 236.059 234.208 236.059 241.696V246.304C236.059 262.432 236.059 273.664 235.483 280.72C237.643 280.288 239.515 280 241.531 280C243.403 280 245.419 280.288 247.291 280.72C246.715 274.096 246.715 266.464 246.715 241.408C246.715 230.176 252.187 221.392 261.403 221.392C264.283 221.392 267.451 222.544 268.459 223.696L269.467 222.976ZM287.18 253.792C287.18 262.432 286.892 272.512 286.028 280.72C288.188 280.288 290.348 280 292.508 280C294.668 280 296.828 280.288 298.988 280.72C298.124 272.512 297.836 262.432 297.836 253.792V238.816C297.836 230.176 298.124 220.096 298.988 211.888C296.828 212.32 294.668 212.608 292.508 212.608C290.348 212.608 288.188 212.32 286.028 211.888C286.892 220.096 287.18 230.176 287.18 238.816V253.792ZM285.164 186.832C285.164 190.864 288.476 194.176 292.508 194.176C296.54 194.176 299.852 190.864 299.852 186.832C299.852 182.8 296.54 179.488 292.508 179.488C288.476 179.488 285.164 182.8 285.164 186.832ZM317.466 280.72C325.962 280.432 334.458 280 342.954 280C354.906 280 367.002 280.432 378.954 280.72C378.666 279.424 378.378 277.984 378.378 276.688C378.378 275.392 378.666 273.952 378.954 272.656C358.794 274.528 349.578 274.672 333.882 274.672C341.082 264.592 364.266 234.064 379.674 214.048V211.888C373.626 212.464 369.018 212.608 360.81 212.608C343.098 212.608 330.858 212.464 324.81 211.888C325.098 213.472 325.242 214.768 325.242 216.064C325.242 217.504 325.098 218.8 324.81 220.096C335.754 219.088 361.098 217.936 363.834 217.936C353.466 231.904 334.026 258.688 317.466 278.704V280.72ZM389.61 246.304C389.61 272.512 407.898 282.16 424.602 282.16C441.306 282.16 459.594 272.512 459.594 246.304C459.594 220.096 441.306 210.448 424.602 210.448C407.898 210.448 389.61 220.096 389.61 246.304ZM402.282 246.304C402.282 230.176 407.61 215.056 424.602 215.056C441.594 215.056 446.922 230.176 446.922 246.304C446.922 262.432 441.594 277.552 424.602 277.552C407.61 277.552 402.282 262.432 402.282 246.304ZM522.474 239.824V248.608C522.474 259.696 521.754 270.208 521.466 280.72C523.482 280.288 525.354 280 527.37 280C529.386 280 531.258 280.288 533.418 280.72C533.13 274.528 533.13 268.48 533.13 262.144C533.13 252.352 533.706 243.712 533.706 235.504C533.706 215.632 521.322 210.448 510.666 210.448C500.298 210.448 492.954 215.2 487.626 223.408H487.338C487.338 219.52 487.482 215.776 487.77 211.888C485.61 212.32 483.45 212.608 482.01 212.608C479.85 212.608 477.69 212.32 475.53 211.888C476.394 220.096 476.682 230.176 476.682 238.816V253.792C476.682 262.432 476.394 272.512 475.53 280.72C477.69 280.288 479.85 280 482.01 280C484.17 280 486.33 280.288 488.49 280.72C487.626 272.512 487.338 262.432 487.338 253.792V241.552C487.338 226.576 493.386 217.936 506.778 217.936C516.282 217.936 522.474 225.712 522.474 239.824ZM570.09 255.376C572.394 228.016 575.706 189.712 575.706 186.544C575.706 181.36 572.25 179.488 568.65 179.488C565.05 179.488 561.594 181.36 561.594 186.544C561.594 189.712 564.906 228.016 567.21 255.376H570.09ZM560.442 273.52C560.442 277.984 564.186 281.728 568.65 281.728C573.114 281.728 576.858 277.984 576.858 273.52C576.858 269.056 573.114 265.312 568.65 265.312C564.186 265.312 560.442 269.056 560.442 273.52Z" fill="#E1DFDF"/>
</g>
<defs>
<filter id="filter0_d" x="0.722168" y="0.488281" width="637.99" height="295.672" filterUnits="userSpaceOnUse" color-interpolation-filters="sRGB">
<feFlood flood-opacity="0" result="BackgroundImageFix"/>
<feColorMatrix in="SourceAlpha" type="matrix" values="0 0 0 0 0 0 0 0 0 0 0 0 0 0 0 0 0 0 127 0"/>
<feOffset dx="4" dy="4"/>
<feGaussianBlur stdDeviation="5"/>
<feColorMatrix type="matrix" values="0 0 0 0 0.954167 0 0 0 0 0.954167 0 0 0 0 0.954167 0 0 0 0.11 0"/>
<feBlend mode="normal" in2="BackgroundImageFix" result="effect1_dropShadow"/>
<feBlend mode="normal" in="SourceGraphic" in2="effect1_dropShadow" result="shape"/>
</filter>
</defs>
</svg>
