<!-- <svg
  xmlns="http://www.w3.org/2000/svg"
  width="32"
  height="32"
  viewBox="0 0 24 24"
  fill="none"
  stroke="white"
  stroke-width="1"
  stroke-linecap="round"
  stroke-linejoin="round"
  class="feather feather-linkedin"
><path
    d="M16 8a6 6 0 0 1 6 6v7h-4v-7a2 2 0 0 0-2-2 2 2 0 0 0-2 2v7h-4v-7a6 6 0 0 1 6-6z"
  /><rect x="2" y="9" width="4" height="12" /><circle
    cx="4"
    cy="4"
    r="2"
  /></svg> -->
<svg width="47" height="46" viewBox="0 0 47 46" fill="none" xmlns="http://www.w3.org/2000/svg">
<circle cx="23.2703" cy="22.9246" r="22.8543" fill="white"/>
<path fill-rule="evenodd" clip-rule="evenodd" d="M23.2703 0.0703125C35.8834 0.0703125 46.1247 10.2979 46.1247 22.9246C46.1247 35.5377 35.8971 45.779 23.2703 45.779C10.6573 45.779 0.416016 35.5514 0.416016 22.9246C0.416016 10.3116 10.6436 0.0703125 23.2703 0.0703125ZM20.3227 18.3867H25.0115V20.7859H25.08C25.7381 19.6069 27.3285 18.3867 29.714 18.3867C34.6632 18.3867 35.5818 21.4714 35.5818 25.4747V33.6457H30.6874V26.4069C30.6874 24.6795 30.6462 22.4585 28.1373 22.4585C25.5873 22.4585 25.2034 24.3368 25.2034 26.2835V33.6457H20.309V18.3867H20.3227ZM16.9364 14.1503C16.9364 15.5487 15.7985 16.7004 14.3864 16.7004C12.9879 16.7004 11.8363 15.5624 11.8363 14.1503C11.8363 12.7519 12.9742 11.6003 14.3864 11.6003C15.7848 11.6003 16.9364 12.7382 16.9364 14.1503ZM11.85 18.3867H16.9364V33.6457H11.85V18.3867Z" fill="#0073B1"/>
</svg>
