<svg id="Layer_1" data-name="Layer 1" xmlns="http://www.w3.org/2000/svg" width="319" height="97.11" viewBox="0 0 319 97.11"><path d="M236.5,330.05l6.42-72.6h18l15.89,41.27,15.88-41.27h18l6.42,72.6H300.25L297,287.76,282,329.21H271.74l-15.05-41.45-3.21,42.29Z" transform="translate(-236.5 -257.45)" fill="#4a00e0"/><path d="M347.28,331.11A27.64,27.64,0,0,1,334,328a24.55,24.55,0,0,1-9.31-8.58,22.52,22.52,0,0,1-3.41-12.24,22.78,22.78,0,0,1,1.94-9.39,23.47,23.47,0,0,1,5.41-7.61,24.64,24.64,0,0,1,8.12-5.08,27.32,27.32,0,0,1,10.05-1.81,25.13,25.13,0,0,1,12.34,2.93,21.16,21.16,0,0,1,8.3,8.14,23.86,23.86,0,0,1,3,12.08c0,.38,0,.73,0,1.05s-.07,1-.16,1.94H337.82a8.72,8.72,0,0,0,1.27,4.75,8.5,8.5,0,0,0,3.61,3.15,12.67,12.67,0,0,0,5.5,1.12,11.33,11.33,0,0,0,5.15-1.12,18.1,18.1,0,0,0,4.66-3.72l11.53,5.76a22,22,0,0,1-9.09,8.67A27.77,27.77,0,0,1,347.28,331.11Zm-9-29.83h16.37a8.06,8.06,0,0,0-1.41-3.69,6.89,6.89,0,0,0-2.82-2.27,9.74,9.74,0,0,0-4-.77,10.16,10.16,0,0,0-4.16.79,6.39,6.39,0,0,0-2.79,2.29A7.49,7.49,0,0,0,338.3,301.28Z" transform="translate(-236.5 -257.45)" fill="#4a00e0"/><path d="M377.57,329.58V284.52h16.06v6.38a19.74,19.74,0,0,1,6.38-5.74,15.9,15.9,0,0,1,7.79-2,18.73,18.73,0,0,1,5.24.79,15.23,15.23,0,0,1,4.53,2.07l-6.69,13.5a14.28,14.28,0,0,0-3.7-1.78,12.88,12.88,0,0,0-3.91-.68,9.3,9.3,0,0,0-4.69,1.28,10.48,10.48,0,0,0-3.58,3.32,7.81,7.81,0,0,0-1.37,4.42v23.54Z" transform="translate(-236.5 -257.45)" fill="#4a00e0"/><path d="M443.57,354.55q-9.33,0-15.64-3.32a19.43,19.43,0,0,1-9.09-9.79l13-6.38a12,12,0,0,0,4.9,4.09,15.23,15.23,0,0,0,6.71,1.54,11.9,11.9,0,0,0,5.83-1.36,9.73,9.73,0,0,0,3.85-3.7,10.24,10.24,0,0,0,1.37-5.28v-4.66a22.28,22.28,0,0,1-6.84,4.49,20.7,20.7,0,0,1-8,1.58,21,21,0,0,1-11.09-3,22.42,22.42,0,0,1-8-8.44,27.18,27.18,0,0,1-.09-24.69,22.36,22.36,0,0,1,8-8.55,21.58,21.58,0,0,1,11.6-3.15,22.09,22.09,0,0,1,8,1.45,18.17,18.17,0,0,1,6.4,4.09V285.3h16.06v46.29a23.74,23.74,0,0,1-2.84,11.54,20.31,20.31,0,0,1-8.82,8.32Q452.95,354.55,443.57,354.55Zm1.06-36.38a10.32,10.32,0,0,0,5.3-1.35,9.69,9.69,0,0,0,3.63-3.67,10.46,10.46,0,0,0,1.32-5.24,10.58,10.58,0,0,0-1.34-5.36,10.14,10.14,0,0,0-3.63-3.7,10.61,10.61,0,0,0-10.43,0,10.12,10.12,0,0,0-3.63,3.72,10.72,10.72,0,0,0-1.34,5.39,10.41,10.41,0,0,0,1.3,5.21,9.58,9.58,0,0,0,3.58,3.65A10.12,10.12,0,0,0,444.63,318.17Z" transform="translate(-236.5 -257.45)" fill="#4a00e0"/><path d="M504.67,330.28a27.64,27.64,0,0,1-13.29-3.16,24.55,24.55,0,0,1-9.31-8.58,22.52,22.52,0,0,1-3.41-12.24,22.78,22.78,0,0,1,1.94-9.39A23.47,23.47,0,0,1,486,289.3a24.64,24.64,0,0,1,8.12-5.08,27.32,27.32,0,0,1,10.05-1.81,25.13,25.13,0,0,1,12.34,2.93,21.16,21.16,0,0,1,8.3,8.14,23.86,23.86,0,0,1,3,12.08c0,.38,0,.73,0,1.05s-.07,1-.16,1.94H495.21a8.72,8.72,0,0,0,1.27,4.75,8.5,8.5,0,0,0,3.61,3.15,12.67,12.67,0,0,0,5.5,1.12,11.33,11.33,0,0,0,5.15-1.12,18.1,18.1,0,0,0,4.66-3.72l11.53,5.76a22,22,0,0,1-9.09,8.67A27.77,27.77,0,0,1,504.67,330.28Zm-9-29.83h16.37a8.06,8.06,0,0,0-1.41-3.69,6.89,6.89,0,0,0-2.82-2.27,9.74,9.74,0,0,0-4-.77,10.16,10.16,0,0,0-4.16.79,6.39,6.39,0,0,0-2.79,2.29A7.49,7.49,0,0,0,495.69,300.45Z" transform="translate(-236.5 -257.45)" fill="#4a00e0"/><path d="M545.16,331.63a10.13,10.13,0,0,1-5.21-1.39,10.39,10.39,0,0,1-3.74-3.74,10.48,10.48,0,0,1,0-10.43,10.32,10.32,0,0,1,3.74-3.74,10.54,10.54,0,0,1,10.43,0,10.39,10.39,0,0,1,3.74,3.74,10.54,10.54,0,0,1,0,10.43,10.47,10.47,0,0,1-3.74,3.74A10.14,10.14,0,0,1,545.16,331.63Z" transform="translate(-236.5 -257.45)" fill="#4a00e0"/></svg>