<svg width="262" height="319" viewBox="0 0 262 319" fill="none" xmlns="http://www.w3.org/2000/svg">
<path d="M99.5 146.5L34 179L8.5 204L105.5 255.5L128.5 226.5L155.5 258L253 206L224.5 179L155.5 146.5" stroke="#27A5EF" stroke-width="10"/>
<path d="M34.367 176.549L127.644 224.482L224.345 179.457" stroke="#27A5EF" stroke-width="10"/>
<path d="M32 220V270.5L128 313L222.5 270.5L224.5 220" stroke="#27A5EF" stroke-width="10"/>
<path d="M128 260V309.5" stroke="#27A5EF" stroke-width="10"/>
<path d="M114 147C113.21 134.45 111.206 127.679 105 116C85.4783 80.3237 98 55.5 128.5 52.5" stroke="#27A5EF" stroke-width="10"/>
<path d="M142.136 147C142.926 134.45 144.931 127.679 151.136 116C170.658 80.3237 158.136 55.5 127.636 52.5" stroke="#27A5EF" stroke-width="10"/>
<path d="M110 155L145 155" stroke="#27A5EF" stroke-width="7"/>
<path d="M110 168L145 168" stroke="#27A5EF" stroke-width="7"/>
<path d="M139.5 177H115L122.5 183.5H132.5L139.5 177Z" fill="#27A5EF"/>
<path d="M125 32V0.5" stroke="white" stroke-width="8"/>
<path d="M99.7652 39.0125L82 13" stroke="white" stroke-width="8"/>
<path d="M80.211 62.471L54 45" stroke="white" stroke-width="8"/>
<path d="M74.4996 86.152L43 86" stroke="white" stroke-width="8"/>
<path d="M81.2318 114L53 127.972" stroke="white" stroke-width="8"/>
<path d="M156 39.0125L173.765 13" stroke="white" stroke-width="8"/>
<path d="M175.554 62.471L201.765 45" stroke="white" stroke-width="8"/>
<path d="M181.266 86.152L212.765 86" stroke="white" stroke-width="8"/>
<path d="M174.533 114L202.765 127.972" stroke="white" stroke-width="8"/>
</svg>
