<svg
  width="528"
  height="595"
  viewBox="0 0 528 595"
  fill="none"
  xmlns="http://www.w3.org/2000/svg"
>
<g clip-path="url(#clip0)">
<path
      fill-rule="evenodd"
      clip-rule="evenodd"
      d="M294.952 126.454L295.161 79.9988L445.704 167.187C445.704 167.187 450.164 171.788 450.231 175.833C450.842 212.608 449.473 396.74 449.473 396.74C449.473 396.74 445.099 404.081 438.763 407.851C432.109 411.812 423.548 409.369 423.548 409.369L303.839 340.963L303.159 406.371L260.812 430.917L261.177 301.974C261.477 298.646 262.531 295.43 264.257 292.569C266.92 288.445 272.029 285.177 272.029 285.177L381.7 223.432L382.392 271.806L329.406 304.621L403.232 349.128L405.104 350.122C405.835 350.074 406.52 349.752 407.024 349.222C407.57 348.37 407.918 347.407 408.042 346.403L408.026 194.694L294.952 126.454Z"
      fill="white"
    />
<path
      fill-rule="evenodd"
      clip-rule="evenodd"
      d="M93.8059 327.819L53.4686 350.857L53.7088 176.958C53.7088 176.958 55.4634 170.797 58.9337 168.717C90.4777 149.808 250.629 58.964 250.629 58.964C250.629 58.964 259.173 59.0819 265.607 62.6821C272.364 66.4629 274.528 75.094 274.528 75.094L275.138 212.909L332.124 180.806L374.554 205.195L262.701 269.328C259.669 270.731 256.357 271.427 253.016 271.363C248.112 271.117 242.728 268.329 242.728 268.329L134.419 204.254L175.968 179.476L230.88 208.943L232.512 122.794L232.438 120.677C232.03 120.069 231.409 119.636 230.698 119.465C229.686 119.418 228.677 119.598 227.744 119.992L96.3699 195.828L93.8059 327.819Z"
      fill="white"
    />
<path
      fill-rule="evenodd"
      clip-rule="evenodd"
      d="M372.462 402.075L412.628 425.411L262.076 512.446C262.076 512.446 255.866 514.019 252.325 512.06C220.143 494.26 61.2129 401.296 61.2129 401.296C61.2129 401.296 57.0283 393.846 56.9151 386.474C56.7957 378.732 63.1764 372.53 63.1764 372.53L182.087 302.863L125.727 269.673L125.538 220.732L237.132 285.316C239.867 287.236 242.13 289.751 243.751 292.673C245.999 297.039 246.288 303.095 246.288 303.095L245.197 428.933L202.919 405.422L200.86 343.138L125.518 384.945L123.724 386.072C123.402 386.729 123.34 387.483 123.548 388.185C124.015 389.084 124.677 389.867 125.486 390.475L256.997 466.075L372.462 402.075Z"
      fill="white"
    />
<path
      fill-rule="evenodd"
      clip-rule="evenodd"
      d="M174.187 177.552L131.797 202.892L238.963 267.142C238.963 267.142 246.394 272.448 253.399 272.39C260.944 272.324 268.103 266.89 268.103 266.89L376.49 204.094L334.371 179.586L275.313 211.35C275.313 211.35 262.427 216.657 250.929 215.63C239.658 214.624 229.772 207.284 229.772 207.284L174.187 177.552Z"
      fill="#27A5EF"
    />
<path
      fill-rule="evenodd"
      clip-rule="evenodd"
      d="M384.311 270.938L383.56 221.573L274.654 282.228C274.654 282.228 266.367 286.004 262.926 292.102C259.222 298.666 260.346 307.581 260.346 307.581L260.545 432.807L302.708 408.596L304.715 341.587C304.715 341.587 306.555 327.777 313.174 318.336C319.665 309.083 330.929 304.194 330.929 304.194L384.311 270.938Z"
      fill="#27A5EF"
    />
<path
      fill-rule="evenodd"
      clip-rule="evenodd"
      d="M201.424 407.371L244.678 431.456L246.586 306.579C246.586 306.579 247.458 297.498 243.887 291.457C240.043 284.954 231.737 281.462 231.737 281.462L122.862 218.883L122.757 267.592L179.959 302.914C179.959 302.914 191.034 311.43 195.914 321.902C200.699 332.166 199.298 344.392 199.298 344.392L201.424 407.371Z"
      fill="#27A5EF"
    />
</g>
<defs>
<clipPath id="clip0">
<rect
        width="513"
        height="582"
        fill="white"
        transform="translate(14.4883) rotate(1.42645)"
      />
</clipPath>
</defs>
</svg>
