<svg width="204" height="238" viewBox="0 0 204 238" fill="none" xmlns="http://www.w3.org/2000/svg">
<path d="M46.2027 31.4608L41.8918 43.5701L42.7392 58.4713L50.2395 113.987L58.2791 129.875L82.4602 175.793L73.4232 192.68L59.9343 198.499L54.1051 206.251L59.2912 215.226L80.2234 223.09C80.2234 223.09 108.2 221.728 108.402 221.665C108.604 221.602 121.671 215.143 121.671 215.143L125.333 206.799L105.478 189.189L97.5458 174.719L119.991 133.311L128.727 114.568L134.435 59.8267L133.153 38.1968L126.936 33.1826C126.936 33.1826 102.357 30.0964 102.092 30.0952L79.156 29.4697L46.2027 31.4608Z" fill="url(#paint0_linear)"/>
<path d="M46.4051 36.542L46.3009 31.7395L78.9697 29.5171L102.291 30.2768L126.828 33.2693L132.925 38.2127C127.436 39.2797 116.252 41.4411 115.44 41.5502C114.628 41.6592 104.412 41.681 99.4055 41.6781L73.7341 40.4779L46.4051 36.542Z" fill="url(#paint1_linear)" fill-opacity="0.5"/>
<path d="M135.013 60.3527L133.922 43.9808L149.238 48.9381L163.185 63.6819L164.858 73.3303L162.789 102.483C148.735 112.826 120.568 133.548 120.329 133.699C120.09 133.85 126.11 121.198 129.149 114.853L130.137 103.991L149.452 86.9758L147.859 69.9969L135.013 60.3527Z" fill="url(#paint2_linear)"/>
<path d="M43.0221 58.5701L42.106 43.3869L28.7639 44.2428L14.3222 58.4801L10.9883 78.0433L22.8952 100.969L58.5902 129.813L50.3628 113.55L48.9772 103.377L27.9951 84.2687L29.5496 66.4513L43.0221 58.5701Z" fill="url(#paint3_linear)"/>
<path d="M46.542 31.6638L46.5096 31.3016L46.295 31.3145L46.2198 31.5251L46.542 31.6638ZM50.5788 114.19L50.2385 114.228L50.2474 114.293L50.2771 114.351L50.5788 114.19ZM58.6182 130.078L58.3165 130.24L58.3193 130.245L58.6182 130.078ZM82.7993 175.996L83.1001 176.183L83.1932 176.009L83.0982 175.829L82.7993 175.996ZM73.7625 192.884L73.9026 193.22L74.0075 193.175L74.0632 193.071L73.7625 192.884ZM60.2735 198.702L60.1334 198.365L60.0542 198.4L60.0013 198.47L60.2735 198.702ZM54.4442 206.454L54.1719 206.222L54.0263 206.416L54.1526 206.635L54.4442 206.454ZM59.6303 215.429L59.3387 215.609L59.4057 215.726L59.526 215.771L59.6303 215.429ZM80.5627 223.293L80.4584 223.634L80.5234 223.659L80.5913 223.655L80.5627 223.293ZM122.01 215.347L122.165 215.676L122.273 215.623L122.323 215.509L122.01 215.347ZM125.672 207.002L125.985 207.165L126.096 206.913L125.887 206.727L125.672 207.002ZM105.817 189.392L105.522 189.565L105.554 189.623L105.602 189.666L105.817 189.392ZM97.8848 174.923L97.5852 174.734L97.4883 174.912L97.589 175.096L97.8848 174.923ZM120.33 133.514L120.63 133.703L120.634 133.694L120.639 133.684L120.33 133.514ZM129.066 114.771L129.376 114.941L129.401 114.886L129.408 114.824L129.066 114.771ZM134.774 60.03L135.115 60.0831L135.119 60.052L135.117 60.0209L134.774 60.03ZM133.492 38.3999L133.835 38.3908L133.825 38.2201L133.694 38.1147L133.492 38.3999ZM127.275 33.3857L127.477 33.1005L127.399 33.0375L127.303 33.0255L127.275 33.3857ZM102.432 30.2982L102.436 30.6609L102.44 30.6609L102.443 30.661L102.432 30.2982ZM79.4954 29.6728L79.491 29.3102L79.4767 29.3098L79.4629 29.3106L79.4954 29.6728ZM46.237 36.4832L45.894 36.4455L45.8981 36.5304L46.237 36.4832ZM74.1752 40.5914L74.1407 40.9507L74.1727 40.9538L74.1752 40.5914ZM133.512 38.3938L133.852 38.4583L133.443 38.0358L133.512 38.3938ZM122.814 117.366L123.127 117.527L123.154 117.43L122.814 117.366ZM14.4434 58.8657L14.2035 58.5967L14.1056 58.786L14.4434 58.8657ZM149.307 48.9626L149.545 48.7113L149.483 48.645L149.399 48.617L149.307 48.9626ZM163.171 63.6356L163.509 63.586L163.49 63.4691L163.409 63.3842L163.171 63.6356ZM164.797 73.4241L165.14 73.4665L165.143 73.4202L165.135 73.3745L164.797 73.4241ZM162.603 102.576L162.806 102.876L162.934 102.784L162.946 102.618L162.603 102.576ZM149.445 86.5436L149.789 86.5618L149.789 86.5405L149.787 86.5192L149.445 86.5436ZM73.7039 40.7998L74.0275 40.691L73.3655 40.7215L73.7039 40.7998ZM108.798 221.843L108.579 222.114L109.139 221.822L108.798 221.843ZM73.8081 192.869L73.9904 192.569L73.5193 192.661L73.8081 192.869ZM28.8038 44.6572L28.7696 44.295L28.5639 44.3881L28.8038 44.6572ZM22.9488 101.332L22.6483 101.496L22.7468 101.617L22.9488 101.332ZM11.0146 78.1755L10.6768 78.0957L10.6542 78.2231L10.7142 78.3395L11.0146 78.1755ZM129.125 114.753L129.266 115.089L129.276 115.084L129.125 114.753ZM134.421 55.3933L134.58 55.0785L134.202 55.665L134.421 55.3933ZM50.8635 114.322L51.0574 114.031L50.9922 113.992L50.8635 114.322ZM46.2198 31.5251L41.9088 43.6345L42.5534 43.9119L46.8643 31.8026L46.2198 31.5251ZM41.8881 43.7814L42.7354 58.6826L43.4215 58.6663L42.5741 43.765L41.8881 43.7814ZM42.7383 58.7123L50.2385 114.228L50.919 114.152L43.4186 58.6365L42.7383 58.7123ZM50.2771 114.351L58.3165 130.24L58.9201 129.917L50.8806 114.029L50.2771 114.351ZM58.3193 130.245L82.5004 176.163L83.0982 175.829L58.9172 129.911L58.3193 130.245ZM82.4985 175.808L73.4617 192.696L74.0632 193.071L83.1001 176.183L82.4985 175.808ZM73.6224 192.547L60.1334 198.365L60.4135 199.038L73.9026 193.22L73.6224 192.547ZM60.0013 198.47L54.1719 206.222L54.7164 206.686L60.5457 198.934L60.0013 198.47ZM54.1526 206.635L59.3387 215.609L59.9219 215.249L54.7357 206.274L54.1526 206.635ZM59.526 215.771L80.4584 223.634L80.667 222.952L59.7345 215.088L59.526 215.771ZM80.5627 223.293C80.5913 223.655 80.5914 223.655 80.5917 223.655C80.5919 223.655 80.5922 223.655 80.5926 223.655C80.5934 223.655 80.5947 223.655 80.5964 223.655C80.5999 223.655 80.6049 223.654 80.6117 223.654C80.625 223.653 80.6452 223.653 80.6716 223.651C80.7246 223.649 80.8031 223.645 80.9056 223.64C81.1105 223.63 81.4112 223.615 81.7939 223.597C82.5593 223.559 83.6529 223.506 84.9658 223.441C87.5919 223.313 91.0952 223.141 94.605 222.967C98.1146 222.792 101.631 222.616 104.282 222.48C105.608 222.412 106.718 222.353 107.503 222.31C107.895 222.288 108.207 222.27 108.424 222.257C108.533 222.25 108.618 222.244 108.68 222.24C108.71 222.238 108.735 222.235 108.756 222.233C108.765 222.233 108.776 222.231 108.786 222.23C108.786 222.23 108.817 222.227 108.85 222.217L108.632 221.52C108.652 221.514 108.667 221.511 108.669 221.511C108.673 221.51 108.676 221.51 108.676 221.51C108.676 221.51 108.674 221.51 108.667 221.511C108.654 221.512 108.634 221.514 108.605 221.516C108.548 221.52 108.466 221.526 108.358 221.532C108.143 221.546 107.833 221.563 107.441 221.585C106.658 221.629 105.549 221.687 104.223 221.755C101.572 221.891 98.0566 222.068 94.5469 222.242C91.0375 222.416 87.5342 222.588 84.9083 222.717C83.5954 222.781 82.5019 222.835 81.7364 222.872C81.3538 222.891 81.0532 222.905 80.8482 222.915C80.7458 222.92 80.6672 222.924 80.6143 222.926C80.5879 222.928 80.5676 222.929 80.5543 222.93C80.5475 222.93 80.5425 222.93 80.5391 222.93C80.5374 222.93 80.5361 222.93 80.5353 222.93C80.5349 222.93 80.5346 222.931 80.5342 222.93C80.5341 222.93 80.534 222.93 80.5627 223.293ZM108.85 222.217C108.881 222.207 108.923 222.187 108.943 222.177C108.976 222.163 109.02 222.142 109.074 222.116C109.182 222.065 109.333 221.992 109.522 221.901C109.899 221.718 110.427 221.46 111.054 221.152C112.308 220.538 113.96 219.725 115.606 218.914C117.252 218.102 118.892 217.293 120.12 216.686C120.734 216.383 121.246 216.13 121.603 215.954C121.782 215.866 121.923 215.796 122.019 215.749C122.066 215.725 122.103 215.707 122.128 215.695C122.14 215.688 122.15 215.684 122.156 215.681C122.159 215.679 122.161 215.678 122.163 215.677C122.164 215.677 122.164 215.677 122.165 215.677C122.165 215.676 122.165 215.676 122.165 215.676C122.165 215.676 122.165 215.676 122.01 215.347C121.855 215.017 121.855 215.017 121.855 215.017C121.855 215.017 121.855 215.017 121.854 215.017C121.854 215.017 121.853 215.018 121.853 215.018C121.851 215.019 121.849 215.02 121.845 215.022C121.839 215.025 121.83 215.029 121.817 215.035C121.793 215.047 121.756 215.066 121.708 215.089C121.612 215.137 121.472 215.206 121.293 215.294C120.935 215.471 120.424 215.724 119.81 216.027C118.582 216.633 116.942 217.443 115.296 218.254C113.651 219.065 111.998 219.878 110.745 220.493C110.119 220.799 109.592 221.057 109.216 221.239C109.028 221.33 108.878 221.403 108.772 221.453C108.72 221.478 108.678 221.497 108.65 221.51C108.609 221.529 108.614 221.526 108.632 221.52L108.85 222.217ZM122.323 215.509L125.985 207.165L125.359 206.84L121.697 215.184L122.323 215.509ZM125.887 206.727L106.033 189.118L105.602 189.666L125.457 207.276L125.887 206.727ZM106.113 189.219L98.1806 174.75L97.589 175.096L105.522 189.565L106.113 189.219ZM98.1847 175.111L120.63 133.703L120.029 133.325L97.5852 174.734L98.1847 175.111ZM120.639 133.684L129.376 114.941L128.757 114.601L120.02 133.344L120.639 133.684ZM129.408 114.824L135.115 60.0831L134.432 59.9768L128.724 114.718L129.408 114.824ZM135.117 60.0209L133.835 38.3908L133.149 38.409L134.431 60.0389L135.117 60.0209ZM133.694 38.1147L127.477 33.1005L127.073 33.6709L133.29 38.6852L133.694 38.1147ZM127.275 33.3857C127.303 33.0255 127.303 33.0254 127.303 33.0254C127.302 33.0254 127.302 33.0253 127.302 33.0253C127.301 33.0252 127.3 33.0251 127.298 33.0249C127.295 33.0245 127.291 33.0239 127.285 33.0232C127.273 33.0218 127.256 33.0194 127.232 33.0165C127.186 33.0107 127.117 33.0021 127.027 32.9908C126.847 32.9682 126.583 32.935 126.246 32.8928C125.574 32.8084 124.612 32.6879 123.458 32.5433C121.15 32.2539 118.069 31.868 114.98 31.4822C111.891 31.0963 108.794 30.7104 106.453 30.4208C105.282 30.2761 104.299 30.1554 103.602 30.0709C103.253 30.0285 102.974 29.9953 102.779 29.9725C102.682 29.9612 102.604 29.9523 102.549 29.9462C102.506 29.9417 102.45 29.9356 102.42 29.9354L102.443 30.661C102.43 30.6609 102.438 30.6609 102.504 30.6681C102.557 30.6738 102.632 30.6824 102.73 30.6936C102.923 30.7163 103.2 30.7494 103.549 30.7917C104.246 30.8762 105.227 30.9967 106.398 31.1415C108.739 31.431 111.836 31.8169 114.925 32.2028C118.014 32.5885 121.094 32.9743 123.403 33.2637C124.557 33.4084 125.518 33.5289 126.19 33.6133C126.527 33.6555 126.791 33.6887 126.971 33.7113C127.061 33.7226 127.13 33.7312 127.177 33.7371C127.2 33.74 127.218 33.7422 127.229 33.7437C127.235 33.7444 127.239 33.7451 127.242 33.7454C127.244 33.7456 127.245 33.7458 127.246 33.7458C127.246 33.7458 127.246 33.7459 127.247 33.7458C127.247 33.7459 127.247 33.746 127.275 33.3857ZM102.428 29.9355L79.491 29.3102L79.4993 30.0355L102.436 30.6609L102.428 29.9355ZM79.4629 29.3106L46.5096 31.3016L46.5745 32.0261L79.5274 30.0351L79.4629 29.3106ZM46.1994 31.6261L45.894 36.4455L46.5796 36.5209L46.8852 31.7015L46.1994 31.6261ZM46.202 36.8426L74.1407 40.9507L74.2102 40.2321L46.2715 36.1239L46.202 36.8426ZM74.1727 40.9538L99.4155 42.1584L99.4204 41.4336L74.1781 40.2289L74.1727 40.9538ZM99.4356 42.1587L115.43 41.9331L115.395 41.2074L99.4004 41.4332L99.4356 42.1587ZM115.481 41.9282L133.581 38.7517L133.443 38.0358L115.344 41.2123L115.481 41.9282ZM133.172 38.3292L122.473 117.301L123.154 117.43L133.852 38.4583L133.172 38.3292ZM123.156 117.342L115.754 41.5466L115.07 41.5941L122.472 117.389L123.156 117.342ZM49.5116 103.888L28.4044 84.4906L27.9644 85.0302L49.0716 104.428L49.5116 103.888ZM28.5265 84.8091L30.1994 66.751L29.5154 66.6536L27.8424 84.7117L28.5265 84.8091ZM30.037 67.0185L43.2581 58.9906L42.8988 58.3582L29.6778 66.3861L30.037 67.0185ZM43.0725 58.3117L26.0631 57.9448L26.0749 58.6703L43.0843 59.0372L43.0725 58.3117ZM26.0405 57.9451L14.415 58.5033L14.4719 59.2282L26.0975 58.67L26.0405 57.9451ZM133.678 44.1242L149.214 49.3082L149.399 48.617L133.862 43.4331L133.678 44.1242ZM149.068 49.2139L162.932 63.8867L163.409 63.3842L149.545 48.7113L149.068 49.2139ZM162.832 63.6853L164.459 73.4736L165.135 73.3745L163.509 63.586L162.832 63.6853ZM164.454 73.3821L162.261 102.534L162.946 102.618L165.14 73.4665L164.454 73.3821ZM162.4 102.275L120.185 133.195L120.591 133.796L162.806 102.876L162.4 102.275ZM130.384 104.284L149.675 86.8228L149.216 86.2643L129.925 103.725L130.384 104.284ZM149.787 86.5192L148.12 69.7489L147.436 69.7978L149.103 86.5678L149.787 86.5192ZM147.97 69.4806L134.985 59.7308L134.601 60.3168L147.586 70.0662L147.97 69.4806ZM45.8981 36.5304L59.4028 121.121L60.0805 121.027L46.5759 36.436L45.8981 36.5304ZM59.4292 121.213L82.6716 175.649L83.2963 175.371L60.0541 120.935L59.4292 121.213ZM82.6449 175.556L86.7685 202.229L87.4468 202.139L83.323 175.465L82.6449 175.556ZM86.7805 202.06L80.2811 223.155L80.9354 223.402L87.4349 202.308L86.7805 202.06ZM99.0747 41.7951L101.901 126.449L102.588 126.451L99.7613 41.7968L99.0747 41.7951ZM101.908 126.365L91.9608 178.073L92.6348 178.243L102.582 126.535L101.908 126.365ZM60.0798 121.153L74.0418 40.8783L73.3655 40.7215L59.4036 120.996L60.0798 121.153ZM82.9063 175.86L92.2202 178.509L92.3755 177.808L83.0617 175.16L82.9063 175.86ZM92.4711 178.478L98.1169 175.224L97.7704 174.584L92.1245 177.838L92.4711 178.478ZM97.6099 174.978L108.464 221.916L109.131 221.769L98.2773 174.831L97.6099 174.978ZM109.139 221.822L106.212 189.355L105.528 189.397L108.455 221.864L109.139 221.822ZM59.9582 215.625L74.0967 193.077L73.5193 192.661L59.3808 215.209L59.9582 215.625ZM73.6257 193.169L86.9253 202.484L87.2901 201.884L73.9904 192.569L73.6257 193.169ZM87.4429 202.278L92.633 178.252L91.9626 178.065L86.7725 202.091L87.4429 202.278ZM92.6182 178.039L73.2253 124.794L72.5849 125.032L91.9778 178.277L92.6182 178.039ZM73.2487 124.93L74.0474 40.8171L73.3603 40.7825L72.5614 124.895L73.2487 124.93ZM73.3803 40.9086L101.921 126.559L102.568 126.342L74.0275 40.691L73.3803 40.9086ZM78.8848 29.7387L79.433 40.8195L80.1196 40.8088L79.571 29.7281L78.8848 29.7387ZM102.09 30.2862L101.928 41.7723L102.616 41.8103L102.777 30.3242L102.09 30.2862ZM28.4675 44.5694L25.7327 58.2198L26.4054 58.3953L29.1402 44.7449L28.4675 44.5694ZM25.7254 58.2984L26.0212 83.3703L26.7085 83.3886L26.4126 58.3166L25.7254 58.2984ZM26.0279 83.2953L22.6117 101.248L23.2858 101.416L26.7019 83.4637L26.0279 83.2953ZM22.9292 101.693L48.7808 104.275L48.8199 103.553L22.9683 100.971L22.9292 101.693ZM10.9208 78.5205L26.2711 83.7245L26.4587 83.0344L11.1085 77.8304L10.9208 78.5205ZM26.1713 83.6713L27.9909 85.0523L28.378 84.4685L26.5585 83.0876L26.1713 83.6713ZM30.1666 66.5564L26.3783 58.1617L25.7598 58.4534L29.5482 66.8482L30.1666 66.5564ZM26.2975 58.5874L42.4595 44.0531L42.0026 43.4933L25.8405 58.0276L26.2975 58.5874ZM42.1969 43.4111L28.7696 44.295L28.838 45.0193L42.2653 44.1353L42.1969 43.4111ZM28.5639 44.3881L14.2035 58.5967L14.6834 59.1348L29.0438 44.9262L28.5639 44.3881ZM14.1056 58.786L10.6768 78.0957L11.3525 78.2552L14.7813 58.9454L14.1056 58.786ZM10.7142 78.3395L22.6483 101.496L23.2493 101.168L11.3151 78.0114L10.7142 78.3395ZM22.7468 101.617L58.436 130.358L58.8397 129.787L23.1505 101.047L22.7468 101.617ZM109.016 221.572L87.3257 201.912L86.8895 202.456L108.579 222.114L109.016 221.572ZM87.4253 202.335L98.2615 175.055L97.6259 174.753L86.7899 202.033L87.4253 202.335ZM98.2572 175.065L123.127 117.527L122.5 117.205L97.6301 174.743L98.2572 175.065ZM129.381 115.003L149.645 91.7659L149.131 91.2635L128.868 114.502L129.381 115.003ZM149.122 91.7344L156.647 101.714L157.179 101.275L149.654 91.2954L149.122 91.7344ZM156.865 101.852L162.555 102.933L162.652 102.219L156.961 101.137L156.865 101.852ZM147.946 70.0964L149.515 69.2316L149.179 68.5855L147.61 69.4503L147.946 70.0964ZM149.267 69.2583L164.717 73.7734L164.877 73.0747L149.427 68.5595L149.267 69.2583ZM164.957 73.1095L134.58 55.0785L134.261 55.7079L164.637 73.7386L164.957 73.1095ZM134.202 55.665L149.129 69.1805L149.565 68.6373L134.639 55.1216L134.202 55.665ZM149.014 68.9824L156.579 101.568L157.247 101.421L149.681 68.8348L149.014 68.9824ZM156.762 101.163L128.974 114.421L129.276 115.084L157.064 101.826L156.762 101.163ZM128.984 114.416L102.104 126.114L102.386 126.787L129.266 115.089L128.984 114.416ZM102.249 126.088L72.9093 124.55L72.9009 125.275L102.24 126.813L102.249 126.088ZM72.9849 124.563L59.8215 120.725L59.6619 121.424L72.8253 125.262L72.9849 124.563ZM59.9356 120.782L51.0574 114.031L50.6697 114.614L59.5479 121.366L59.9356 120.782ZM50.9922 113.992L23.0773 101.001L22.8201 101.663L50.735 114.654L50.9922 113.992ZM149.731 91.5328L149.789 86.5618L149.102 86.5257L149.044 91.4967L149.731 91.5328Z" fill="url(#paint4_linear)" fill-opacity="0.5"/>
<defs>
<linearGradient id="paint0_linear" x1="49.3696" y1="70.4499" x2="151.858" y2="80.7253" gradientUnits="userSpaceOnUse">
<stop offset="0.0999476" stop-color="#DA6413"/>
<stop offset="0.666667" stop-color="#913B10"/>
</linearGradient>
<linearGradient id="paint1_linear" x1="80.627" y1="-33.255" x2="92.0367" y2="66.0181" gradientUnits="userSpaceOnUse">
<stop stop-color="#DA5915"/>
<stop offset="1" stop-color="#7C3707"/>
</linearGradient>
<linearGradient id="paint2_linear" x1="116.161" y1="63.4812" x2="168.029" y2="72.7494" gradientUnits="userSpaceOnUse">
<stop offset="0.270833" stop-color="#A14515"/>
<stop offset="0.666667" stop-color="#BC5612"/>
</linearGradient>
<linearGradient id="paint3_linear" x1="3.1992" y1="68.7978" x2="52.0265" y2="59.8644" gradientUnits="userSpaceOnUse">
<stop offset="0.0999476" stop-color="#E9690D"/>
<stop offset="1" stop-color="#D0480E" stop-opacity="0.54"/>
</linearGradient>
<linearGradient id="paint4_linear" x1="72.321" y1="23.6121" x2="81.4939" y2="198.928" gradientUnits="userSpaceOnUse">
<stop stop-color="#EC5B0A"/>
<stop offset="1" stop-color="#D55E07"/>
</linearGradient>
</defs>
</svg>
