<svg
  width="1342"
  height="933"
  viewBox="0 0 1342 933"
  fill="none"
  xmlns="http://www.w3.org/2000/svg"
>
<path
    d="M248.118 120.598L448 5.19615L647.882 120.598V351.402L448 466.804L248.118 351.402V120.598Z"
    stroke="white"
    stroke-width="9"
  />
<path
    d="M693.118 120.598L893 5.19615L1092.88 120.598V351.402L893 466.804L693.118 351.402V120.598Z"
    stroke="white"
    stroke-width="9"
  />
<path
    d="M906.118 511.598L1106 396.196L1305.88 511.598V742.402L1106 857.804L906.118 742.402V511.598Z"
    stroke="white"
    stroke-width="9"
  />
<path
    d="M36.118 509.598L236 394.196L435.882 509.598V740.402L236 855.804L36.118 740.402V509.598Z"
    stroke="white"
    stroke-width="9"
  />
<rect x="835" y="202" width="56" height="10" fill="white" />
<rect x="835" y="180" width="101" height="10" fill="white" />
<rect x="816" y="155" width="160" height="10" fill="#27A5EF" />
<path
    d="M816.5 246V160H792V132.5H994V160H974V246"
    stroke="#27A5EF"
    stroke-width="10"
  />
<circle cx="821.5" cy="268.5" r="22.5" stroke="#27A5EF" stroke-width="10" />
<circle cx="895.5" cy="268.5" r="22.5" stroke="#27A5EF" stroke-width="10" />
<circle cx="969.5" cy="268.5" r="22.5" stroke="#27A5EF" stroke-width="10" />
<rect
    x="787"
    y="326"
    width="219"
    height="22"
    stroke="#27A5EF"
    stroke-width="10"
  />
<path d="M828 290.5H960.5" stroke="#27A5EF" stroke-width="10" />
<path
    d="M787 324C790.634 294.311 837.351 279.728 855 324"
    stroke="#27A5EF"
    stroke-width="10"
  />
<path
    d="M863 324C866.634 294.311 913.351 279.728 931 324"
    stroke="#27A5EF"
    stroke-width="10"
  />
<path
    d="M938 324C941.634 294.311 988.351 279.728 1006 324"
    stroke="#27A5EF"
    stroke-width="10"
  />
<path
    d="M338.5 231H403L428 192L465.5 270L503 231H572"
    stroke="white"
    stroke-width="10"
  />
<path
    d="M325.098 198.644C325.098 198.644 327.657 177.566 340.981 160.396C349.393 149.556 364.769 141.469 378.043 137.448C403.631 129.696 446.871 158.043 446.871 158.043C446.871 158.043 491.474 129.024 526.289 139.213C540.08 143.25 555.192 155.183 563.351 169.811C570.98 183.489 572.108 199.762 572.175 207.47C572.687 264.828 448.048 355.164 448.048 355.164L363.924 276.315"
    stroke="#27A5EF"
    stroke-width="20"
  />
<path
    d="M204.5 612.5L139 645L113.5 670L210.5 721.5L233.5 692.5L260.5 724L358 672L329.5 645L260.5 612.5"
    stroke="#27A5EF"
    stroke-width="10"
  />
<path
    d="M139.367 642.549L232.644 690.482L329.345 645.457"
    stroke="#27A5EF"
    stroke-width="10"
  />
<path
    d="M137 686V736.5L233 779L327.5 736.5L329.5 686"
    stroke="#27A5EF"
    stroke-width="10"
  />
<path d="M233 726V775.5" stroke="#27A5EF" stroke-width="10" />
<path
    d="M219 613C218.21 600.45 216.206 593.679 210 582C190.478 546.324 203 521.5 233.5 518.5"
    stroke="#27A5EF"
    stroke-width="10"
  />
<path
    d="M247.136 613C247.926 600.45 249.931 593.679 256.136 582C275.658 546.324 263.136 521.5 232.636 518.5"
    stroke="#27A5EF"
    stroke-width="10"
  />
<path d="M215 621L250 621" stroke="#27A5EF" stroke-width="7" />
<path d="M215 634L250 634" stroke="#27A5EF" stroke-width="7" />
<path d="M244.5 643H220L227.5 649.5H237.5L244.5 643Z" fill="#27A5EF" />
<path d="M230 498V466.5" stroke="white" stroke-width="8" />
<path d="M204.765 505.012L187 479" stroke="white" stroke-width="8" />
<path d="M185.211 528.471L159 511" stroke="white" stroke-width="8" />
<path d="M179.5 552.152L148 552" stroke="white" stroke-width="8" />
<path d="M186.232 580L158 593.972" stroke="white" stroke-width="8" />
<path d="M261 505.012L278.765 479" stroke="white" stroke-width="8" />
<path d="M280.554 528.471L306.765 511" stroke="white" stroke-width="8" />
<path d="M286.266 552.152L317.765 552" stroke="white" stroke-width="8" />
<path d="M279.533 580L307.765 593.972" stroke="white" stroke-width="8" />
<g clip-path="url(#clip0)">
<path
      fill-rule="evenodd"
      clip-rule="evenodd"
      d="M711.952 464.454L712.161 417.999L862.704 505.187C862.704 505.187 867.164 509.788 867.231 513.833C867.842 550.608 866.473 734.74 866.473 734.74C866.473 734.74 862.099 742.081 855.763 745.851C849.109 749.812 840.548 747.369 840.548 747.369L720.839 678.963L720.159 744.371L677.812 768.917L678.177 639.974C678.477 636.646 679.531 633.43 681.257 630.569C683.92 626.445 689.029 623.177 689.029 623.177L798.7 561.432L799.392 609.806L746.406 642.621L820.232 687.128L822.104 688.122C822.835 688.074 823.52 687.752 824.024 687.222C824.57 686.37 824.918 685.407 825.042 684.403L825.026 532.694L711.952 464.454Z"
      fill="white"
    />
<path
      fill-rule="evenodd"
      clip-rule="evenodd"
      d="M510.806 665.819L470.469 688.857L470.709 514.958C470.709 514.958 472.463 508.797 475.934 506.717C507.478 487.808 667.629 396.964 667.629 396.964C667.629 396.964 676.173 397.082 682.607 400.682C689.364 404.463 691.528 413.094 691.528 413.094L692.138 550.909L749.124 518.806L791.554 543.195L679.701 607.328C676.669 608.731 673.357 609.427 670.016 609.363C665.112 609.117 659.728 606.329 659.728 606.329L551.419 542.254L592.968 517.476L647.88 546.943L649.512 460.794L649.438 458.677C649.03 458.069 648.409 457.636 647.698 457.465C646.686 457.418 645.677 457.598 644.744 457.992L513.37 533.828L510.806 665.819Z"
      fill="white"
    />
<path
      fill-rule="evenodd"
      clip-rule="evenodd"
      d="M789.462 740.075L829.628 763.411L679.076 850.446C679.076 850.446 672.866 852.019 669.325 850.06C637.143 832.26 478.213 739.296 478.213 739.296C478.213 739.296 474.028 731.846 473.915 724.474C473.796 716.732 480.176 710.53 480.176 710.53L599.087 640.863L542.727 607.673L542.538 558.732L654.132 623.316C656.867 625.236 659.13 627.751 660.751 630.673C662.999 635.039 663.288 641.095 663.288 641.095L662.197 766.933L619.919 743.422L617.86 681.138L542.518 722.945L540.724 724.072C540.402 724.729 540.34 725.483 540.548 726.185C541.015 727.084 541.677 727.867 542.486 728.475L673.997 804.075L789.462 740.075Z"
      fill="white"
    />
<path
      fill-rule="evenodd"
      clip-rule="evenodd"
      d="M591.187 515.552L548.797 540.892L655.963 605.142C655.963 605.142 663.394 610.448 670.399 610.39C677.944 610.324 685.103 604.89 685.103 604.89L793.49 542.094L751.371 517.586L692.313 549.35C692.313 549.35 679.427 554.657 667.929 553.63C656.658 552.624 646.772 545.284 646.772 545.284L591.187 515.552Z"
      fill="#27A5EF"
    />
<path
      fill-rule="evenodd"
      clip-rule="evenodd"
      d="M801.311 608.938L800.56 559.573L691.654 620.228C691.654 620.228 683.367 624.004 679.926 630.102C676.222 636.666 677.346 645.581 677.346 645.581L677.545 770.807L719.708 746.596L721.715 679.587C721.715 679.587 723.555 665.777 730.174 656.336C736.665 647.083 747.929 642.194 747.929 642.194L801.311 608.938Z"
      fill="#27A5EF"
    />
<path
      fill-rule="evenodd"
      clip-rule="evenodd"
      d="M618.424 745.371L661.678 769.456L663.586 644.579C663.586 644.579 664.458 635.498 660.887 629.457C657.043 622.954 648.737 619.462 648.737 619.462L539.862 556.883L539.757 605.592L596.959 640.914C596.959 640.914 608.034 649.43 612.914 659.902C617.699 670.166 616.298 682.392 616.298 682.392L618.424 745.371Z"
      fill="#27A5EF"
    />
</g>
<circle cx="1105" cy="623" r="122" stroke="#27A5EF" stroke-width="20" />
<path
    d="M1154.98 650.34C1154.98 659.52 1151.58 667.34 1144.78 673.8C1138.09 680.147 1128.35 684 1115.54 685.36V704.4H1101.6V685.53C1093.21 684.963 1085.28 683.433 1077.8 680.94C1070.32 678.447 1064.37 675.273 1059.95 671.42L1067.6 654.25C1071.79 657.65 1076.89 660.54 1082.9 662.92C1088.91 665.187 1095.14 666.603 1101.6 667.17V633.17C1093.55 631.243 1086.81 629.147 1081.37 626.88C1076.04 624.5 1071.57 621.1 1067.94 616.68C1064.31 612.147 1062.5 606.197 1062.5 598.83C1062.5 589.65 1065.84 581.83 1072.53 575.37C1079.22 568.91 1088.91 565.057 1101.6 563.81V544.6H1115.54V563.47C1121.89 563.81 1128.06 564.887 1134.07 566.7C1140.19 568.513 1145.52 570.893 1150.05 573.84L1143.08 591.01C1134.47 586.023 1125.29 582.963 1115.54 581.83V616.17C1123.7 618.097 1130.44 620.193 1135.77 622.46C1141.21 624.727 1145.74 628.127 1149.37 632.66C1153.11 637.08 1154.98 642.973 1154.98 650.34ZM1084.43 597.81C1084.43 601.55 1085.9 604.553 1088.85 606.82C1091.8 609.087 1096.05 611.013 1101.6 612.6V582.34C1095.82 583.247 1091.51 585.06 1088.68 587.78C1085.85 590.5 1084.43 593.843 1084.43 597.81ZM1115.54 666.83C1121.55 665.923 1125.97 664.167 1128.8 661.56C1131.75 658.953 1133.22 655.723 1133.22 651.87C1133.22 648.017 1131.69 644.957 1128.63 642.69C1125.57 640.31 1121.21 638.327 1115.54 636.74V666.83Z"
    fill="white"
  />
<defs>
<clipPath id="clip0">
<rect
        width="513"
        height="582"
        fill="white"
        transform="translate(431.488 338) rotate(1.42645)"
      />
</clipPath>
</defs>
</svg>
