<svg
  width="56"
  height="56"
  viewBox="0 0 56 56"
  fill="none"
  xmlns="http://www.w3.org/2000/svg"
>
<path
    d="M54 20.44C54.7178 19.6831 55.1116 18.6758 55.0973 17.6327C55.0831 16.5897 54.6619 15.5935 53.9236 14.8565C53.1854 14.1195 52.1884 13.7001 51.1453 13.6877C50.1023 13.6753 49.0956 14.0708 48.34 14.79L46 17.09V0H13.59L0 13.59V56H46V28.4L54 20.44ZM25.2 41.62L27.13 43.55L24.29 44.46L25.2 41.62ZM28.99 42.62L26.17 39.79L47.6 18.32L50.42 21.15L28.99 42.62ZM52.55 16.2C52.736 16.3857 52.8835 16.6063 52.9841 16.8491C53.0848 17.0919 53.1366 17.3522 53.1366 17.615C53.1366 17.8778 53.0848 18.1381 52.9841 18.3809C52.8835 18.6237 52.736 18.8443 52.55 19.03L51.84 19.74L49 16.91L49.71 16.2C50.093 15.8356 50.6014 15.6324 51.13 15.6324C51.6586 15.6324 52.167 15.8356 52.55 16.2ZM13 13H3.41L13 3.41V13ZM44 54H2V15H14.72L11.52 19H11V20C11 21.3261 11.5268 22.5979 12.4645 23.5355C13.4021 24.4732 14.6739 25 16 25C17.3261 25 18.5979 24.4732 19.5355 23.5355C20.4732 22.5979 21 21.3261 21 20V19H20.48L16 13.4L15 14.65V13H22V27H15V29H31V27H24V13H33V11H24V9.82C24.6672 9.5841 25.2296 9.11993 25.5876 8.50952C25.9457 7.89911 26.0765 7.18176 25.9568 6.48427C25.8371 5.78677 25.4747 5.15404 24.9337 4.6979C24.3926 4.24175 23.7077 3.99157 23 3.99157C22.2923 3.99157 21.6074 4.24175 21.0663 4.6979C20.5253 5.15404 20.1629 5.78677 20.0432 6.48427C19.9235 7.18176 20.0543 7.89911 20.4124 8.50952C20.7704 9.11993 21.3328 9.5841 22 9.82V11H15V2H44V19.09L23.87 39.22L21.2 47.54L29.53 44.88L44 30.4V54ZM14.08 19L16 16.6L17.92 19H14.08ZM18.83 21C18.6239 21.586 18.2409 22.0935 17.734 22.4526C17.2271 22.8116 16.6212 23.0045 16 23.0045C15.3788 23.0045 14.7729 22.8116 14.266 22.4526C13.7591 22.0935 13.3761 21.586 13.17 21H18.83ZM22 7C22 6.80222 22.0586 6.60888 22.1685 6.44443C22.2784 6.27998 22.4346 6.15181 22.6173 6.07612C22.8 6.00043 23.0011 5.98063 23.1951 6.01921C23.3891 6.0578 23.5673 6.15304 23.7071 6.29289C23.847 6.43274 23.9422 6.61093 23.9808 6.80491C24.0194 6.99889 23.9996 7.19996 23.9239 7.38268C23.8482 7.56541 23.72 7.72159 23.5556 7.83147C23.3911 7.94135 23.1978 8 23 8C22.7348 8 22.4804 7.89464 22.2929 7.70711C22.1054 7.51957 22 7.26522 22 7Z"
    fill="white"
  />
<path d="M24 32H6V34H24V32Z" fill="white" />
<path d="M20 36H6V38H20V36Z" fill="white" />
<path d="M20 40H6V42H20V40Z" fill="white" />
<path
    d="M15 44.6201V46.0001C15.0056 46.4147 14.9166 46.8251 14.74 47.2001C14.74 47.2001 14.66 47.2001 14.45 47.1101C13.64 46.7001 12.98 46.4201 12.35 46.7001C12.2534 46.7414 12.1626 46.7952 12.08 46.8601C12 46.2901 12 45.6401 12 45.0001H9.99998C9.85145 46.2718 9.24331 47.4454 8.28999 48.3001C7.69999 48.9001 7.37999 48.9101 7.28999 48.9001C7.19999 48.8901 6.91998 48.6101 6.88998 48.5501L5.10999 49.4601C5.30018 49.82 5.56873 50.1327 5.89584 50.375C6.22294 50.6173 6.60027 50.7831 6.99998 50.8601C7.12312 50.87 7.24685 50.87 7.36999 50.8601C7.82327 50.8292 8.26597 50.709 8.67268 50.5065C9.07939 50.304 9.4421 50.0232 9.73998 49.6801C9.99998 49.4101 10.23 49.1501 10.44 48.8901C10.72 49.7601 11.09 49.8901 11.32 50.0101C11.5619 50.1076 11.828 50.1282 12.0821 50.0692C12.3361 50.0101 12.5658 49.8743 12.74 49.6801C12.9993 49.4124 13.2092 49.1009 13.36 48.7601L13.58 48.8601C13.9123 49.0593 14.2925 49.1645 14.68 49.1645C15.0674 49.1645 15.4476 49.0593 15.78 48.8601C16.3296 48.4802 16.7125 47.904 16.85 47.2501C17.8691 47.6154 18.9256 47.867 20 48.0001V46.0001C18.7443 45.7848 17.512 45.4499 16.32 45.0001L15 44.6201Z"
    fill="white"
  />
<path
    d="M35 19.9999V18.9999H34.48L30 13.3999L25.52 18.9999H25V19.9999C25 21.326 25.5268 22.5978 26.4645 23.5354C27.4021 24.4731 28.6739 24.9999 30 24.9999C31.3261 24.9999 32.5979 24.4731 33.5355 23.5354C34.4732 22.5978 35 21.326 35 19.9999ZM30 16.5999L31.92 18.9999H28.08L30 16.5999ZM30 22.9999C29.3793 23.0002 28.7739 22.808 28.267 22.4498C27.7602 22.0916 27.3769 21.5851 27.17 20.9999H32.83C32.6231 21.5851 32.2398 22.0916 31.733 22.4498C31.2261 22.808 30.6207 23.0002 30 22.9999V22.9999Z"
    fill="white"
  />
</svg>
